/* XPM */
static char *_c414c00b8564c96a938df8d925b73bb[] = {
/* columns rows colors chars-per-pixel */
"64 64 245 2 ",
"   c #1B1B1B",
".  c #17191A",
"X  c #090A10",
"o  c #26241D",
"O  c #342F1E",
"+  c #1E1E22",
"@  c #1C1F2A",
"#  c #201F24",
"$  c #1F2125",
"%  c #1F2328",
"&  c #1C2632",
"*  c #222225",
"=  c #2C2A24",
"-  c #23252B",
";  c #2C2B2B",
":  c #282725",
">  c #302F2C",
",  c #322E24",
"<  c #34322C",
"1  c #3A352B",
"2  c #3B3526",
"3  c #242631",
"4  c #262934",
"5  c #292B36",
"6  c #292E3A",
"7  c #262C3A",
"8  c #2C313D",
"9  c #2A3039",
"0  c #32353C",
"q  c #3C3B3B",
"w  c #393634",
"e  c #302F33",
"r  c #211F17",
"t  c #443D2B",
"y  c #453D26",
"u  c #433D33",
"i  c #433E3A",
"p  c #4C432C",
"a  c #4A4229",
"s  c #51462C",
"d  c #554A2E",
"f  c #5A4C2A",
"g  c #4C4434",
"h  c #45423B",
"j  c #4A443A",
"k  c #494335",
"l  c #544A33",
"z  c #5B4E33",
"x  c #554C3B",
"c  c #554B38",
"v  c #5E5134",
"b  c #5D513B",
"n  c #57503E",
"m  c #5E512F",
"M  c #65552C",
"N  c #705C2D",
"B  c #635534",
"V  c #6C5B35",
"C  c #63563B",
"Z  c #6B5C3C",
"A  c #67583A",
"S  c #715F36",
"D  c #7A642E",
"F  c #7B6634",
"G  c #74623B",
"H  c #79663B",
"J  c #7A6637",
"K  c #6F603D",
"L  c #2D3543",
"P  c #2F3947",
"I  c #2F3A49",
"U  c #2F3748",
"Y  c #323A45",
"T  c #313C4C",
"R  c #363B43",
"E  c #333F51",
"W  c #3B434A",
"Q  c #3A4248",
"!  c #344254",
"~  c #364659",
"^  c #37495C",
"/  c #394A5D",
"(  c #3B4856",
")  c #3A4D62",
"_  c #364A63",
"`  c #3D5166",
"'  c #3E546A",
"]  c #474A47",
"[  c #52544B",
"{  c #5C5B4B",
"}  c #585445",
"|  c #464D53",
" . c #4A5257",
".. c #585A55",
"X. c #4E4E47",
"o. c #645A43",
"O. c #675E47",
"+. c #705F42",
"@. c #5A6258",
"#. c #6E6145",
"$. c #6B634C",
"%. c #66634E",
"&. c #746444",
"*. c #7C6944",
"=. c #726649",
"-. c #7A6C4B",
";. c #766848",
":. c #7B704E",
">. c #676854",
",. c #6C725D",
"<. c #797657",
"1. c #746D50",
"2. c #41566D",
"3. c #45596A",
"4. c #445B73",
"5. c #465E76",
"6. c #5A5D64",
"7. c #5B6766",
"8. c #4A637D",
"9. c #4B657A",
"0. c #546974",
"q. c #636965",
"w. c #687566",
"e. c #737D66",
"r. c #717977",
"t. c #826C3B",
"y. c #866E34",
"u. c #8B7339",
"i. c #957A3B",
"p. c #967B3C",
"a. c #826D43",
"s. c #816E49",
"d. c #867144",
"f. c #8B7544",
"g. c #89764B",
"h. c #947B44",
"j. c #947D49",
"k. c #887B53",
"l. c #917F51",
"z. c #788268",
"x. c #778977",
"c. c #748878",
"v. c #9C803E",
"b. c #A1843F",
"n. c #9D8244",
"m. c #9C834B",
"M. c #8B835A",
"N. c #988857",
"B. c #9D935F",
"V. c #A28543",
"C. c #AB8C44",
"Z. c #A2864A",
"A. c #A88B49",
"S. c #B3934C",
"D. c #BD9A4D",
"F. c #B59448",
"G. c #A78C52",
"H. c #A89459",
"J. c #BC9B53",
"K. c #B79A58",
"L. c #AE904C",
"P. c #BBA25E",
"I. c #868A66",
"U. c #899877",
"Y. c #92956A",
"T. c #A89B62",
"R. c #99A778",
"E. c #9FA06A",
"W. c #ABA56A",
"Q. c #B6A968",
"!. c #ABAC72",
"~. c #B7B876",
"^. c #B3B172",
"/. c #C19E51",
"(. c #C29D4E",
"). c #CDAB5D",
"_. c #C5A45A",
"`. c #D3AE5D",
"'. c #C9AD63",
"]. c #C9B569",
"[. c #D4B463",
"{. c #D8BB68",
"}. c #C7BD71",
"|. c #D0AF60",
" X c #E1BF68",
".X c #BBC27C",
"XX c #DCC36C",
"oX c #C9C578",
"OX c #D8CA74",
"+X c #D8D37C",
"@X c #E2C66C",
"#X c #E7CE72",
"$X c #ECD373",
"%X c #E7D779",
"&X c #F3DA77",
"*X c #F7E57E",
"=X c #EDE47C",
"-X c #4D6782",
";X c #526C88",
":X c #5A7897",
">X c #55708C",
",X c #687D8C",
"<X c #607EA1",
"1X c #688AAB",
"2X c #6F8597",
"3X c #8B938F",
"4X c #96AF94",
"5X c #A9BB89",
"6X c #B1B4B7",
"7X c #8BA4AF",
"8X c #B5C588",
"9X c #B8CF92",
"0X c #B2C6A8",
"qX c #D8D986",
"wX c #CCD48E",
"eX c #E3DD86",
"rX c #D7E79A",
"tX c #D6E18D",
"yX c #F6EC85",
"uX c #FDFC8D",
"iX c #FAF488",
"pX c #FDFE94",
"aX c #FDFE9C",
"sX c #F4F69A",
"dX c #E6EA8F",
"fX c #FCFDA2",
"gX c #FCFDAB",
"hX c #F4F8A6",
"jX c #FCFDB4",
"kX c #FDFEBB",
"lX c #F4FBB5",
"zX c #E9F6AC",
"xX c #D1DDA6",
"cX c #85AFCE",
"vX c #9BC4DA",
"bX c #CFCFD0",
"nX c #FDFEC4",
"mX c #FDFECB",
"MX c #F7FDC3",
"NX c #FCFEDC",
"BX c #FDFED3",
"VX c #E8E8E8",
"CX c #FDFEE5",
"ZX c #FAFBF3",
"AX c #D8ECCE",
/* pixels */
"y.D N M y :           .   .     $ # - %   $ * 6 Q | 2.-X-X) ~ / _ 4.-X>X2X2X4X2Xx.e.k.-.*.s.s.s.a.d.d.u.p.b.p.V.S.d.c h L R L 5 ",
"D N f d y             . .         * * *     * 8 0 ] 5.8.;X) ~ ' ` ` 9.-X2Xr.c.x.w.,.$.&.&.g.g.*.*.a.t.J i.h.A.C._.m.o.} 0 O.] 3 ",
"D N M f ,               . . . r   * $ % $   3 Y w 3.-X8.-X/ ~ 8.4.` 2.5.5.0.z.w.>.%.C +.&.&.s.*.*.s.s.u.i.i.v.C.J._.K.;.c s.] @ ",
"D N M a O               r   .     $ * $ -   5 8 R 0.0.4.-XE T 4.4.2.` ~ ^ (  .@...O.C A &.&.*.-.s.d.f.j.h.i.p.C.L.D./.G.g.+.e 3 ",
"y.N f y O r         .     . .     + + $ * $ 5 8 R 0.0.9.4.~ E 2.' 4.' ! ! L Q [ ..{ o.o.;.1.-.g.g.a.f.Z.Z.p.p.b.C.F.(.j.&.g ; - ",
"y.f f s O o       .   .   . .       + o * $ 3 8 Q |  .3.' ~ ^ ~ ^ ~ ~ ! ! ! Q W ] X.} c o.#.&.a.f.d.f.m.V.p.p.C.F.(.V.a.H l > - ",
"2 . o s y O , w , #   . .       .   r + * $ 4 0 ! R Q ( ) ) ) ~ ! ! ! Q 8 Q Y Q h h h x } +.*.s.d.f.h.h.p.i.v.C.F.C.a.H Z l > ; ",
"O O   * 2 d A O.o.X.>     .           + + 4 5 5 5 8 0 0 T ! ~ ~ ~ ! 8 9 8 L 9 Q j i i x +.;.H *.s.d.h.h.p.p.b.C.C.V.h.A u t 1 > ",
"t p , = 1 b &.-.=.e.{ + + $ $         $ r ` 9.` / ` ` ~ ! I I I L ! L 9 L 9 8 ] u u g b &.&.*.*.*.a.u.h.h.p.b.C.C.C.t.c > , u 1 ",
"B V v B v &.-.M.Y.B.Y.[ * % % 7 8 % % 4 % 8 ` ' 5.9.' ! ! T ! I L ! ! L I I 0 < 1 g b C C Z G V S J J u.i.p.C.C.b.h.C 1 ; 1 1 k ",
"Z S H a.*.-.N.^.}.~.!.8Xz.$ Q 7. .Q 7 9 7 4 7 ~ _ ` ` ~ 8 L L 8 9 L 7 9 P U I ] X.%.1.+.&.*.d.J N D F F u.p.p.V.p.t.l : : , 1 k ",
"S H d.a.H.T.oXdXtXwX}.wXz.> 3XU.w.| 8 P 0 8 9 Y ! ) ` ! I 9 8 9 7 7 9 9 8 5 Q w.>.>.1.-.s.k.g.f.f.J D y.p.i.i.n.u.V 1 , 1 1 g y ",
"H d.l.H.].oXqXjXdXqXdXtX1.>.8XR.U.w.Q r. .3 8 9 L ! ! I 8 9 7 5 9 L 8 6 6 R X.@.>.:.=.;.M.M.:.j.h.h.y.u.t.t.u.t.V s k z C g p t ",
"l.j.N.H.OXqXkXmXgXhXfXgXW.M.5X5Xz.w.x.0Xc.8 - 8 Y L P T 7 7 7 9 7 L L L 8 8 [ >.>.$.O.-.k.k.-.f.a.&.+.A i c G V 1 1 v G d s z p ",
"N.m.g.eXfXfXnXBXnXmXBXjXqX.X5XrXI.3XAX4X4Xc.4 4 Y Q Q Y L L 8 9 L L 6 L L Y { %.1.$.#.-.k.M.-.=.;.c i u g x b u p p v V J H H *.",
"N.l.Q.pXgXjXBXNXlXjXlXaXjXsX.XrXwXxX5X4X0Xx.[ Q ] R 0 L L 9 9 4 7 L I I 6 q } >.1.$.#.*.k.s.{ o.C u x b b l k a l p d Z H *.t.d.",
"eXXX%X+XyXhXNXNXBXnXgXyXhXsXeXnXCXBXrX9X3X0X0X,.@.Q R Q 8 L L 7 8 ! I L P q Q ..-.&.+.&.s.s.} x c } =.O.c c g t s y s V S H t.a.",
"pXuXiX=XyXiXsXNXCXmXgXhXdX+XeXkXZXCXzX9X5XxXz.{ i ] Q 9 Q ~ P P T ~ I I I 0 L R X.X.A &.g.g.#.i x #.1.&.o.c g t l l p B H f.f.f.",
"pXuXuXuXpXpXfXmXCXjXgXnXmXxXjXjXZXCXlXwXrXR.z.=.w.r.P L L ! ! ! P ! ! Q Y Y R | U i +.&.s.:.} u O.:.;.;.+.b c s B m m f.Z.G.N.G.",
"yXiXiXuXpXuXaXkXkXjXkXnXNXmXjXmXZXBXkXzX9X<.>.o.q.W 6 6 P ! ! L I ! ! Y Q | ..[ ] i +.=.$.X.i v :.s.=.+.=.O.c d t.t.h.A.Z.Z.G.P.",
"&X*XiXuXyX*XaXfXjXkXBXCXCXBXgXkXMXzXzXwXU.<.>.>.T 6 6 L E E E T ! ! ( q W [ [ [ ] Q i X.] u u o.$.o.v Z Z Z S f.j.h.K.S.A.A.A.P.",
"$X&X*X*X&XiXpXgXkXNXCXZXCXnXzXzXrX9XrX9Xz.U.z.( ! T Y T ! ~ ~ T ! T Q Y ] ..{ [ | X.] i } } o.+.C d m J t.t.Z.A.h.L.J.K.A.Z.L.K.",
"$X&X$X$X$X*XpXgXjXCXZXNXnXzX9X.X9X8XtX8Xz.x.w.W T ! T U E ~ _ _ I Q Q Q ] } %...] X.{ $.O.o.C C B f V m.S.p.D.L.C./.J./.K.S.K.K.",
"#X$X#X#X$X*XuXpXaXmXZXkXrX.X!.!.~.~..XU.z.,.@.| T Y T U T E ~ E L e ( | ] [ { O.X.[ %.O.o.o.v A V t.G.`./.L././.(./.D././.(.C.L.",
"$X#X#X@X#X&X*XiXpXkXmXsX.X^.W.^.R.!.8XU.>.} | Q R L ! 8 T T U 3X7.& ] | X.} %.%.o.o.} x x c o.v H K.).{.[.[.`.(.(.(.(.(./.F.V.C.",
"&X&X&X@X@X&X*XuXgXjXsXrX.X~.^.Q.E.^.E.M.>... .Q ( W Q L L T & 6X6X@ | X.} o.%.$.=.=.n z A *.S S G.K.[.{. X X[.(.(.(.D.D.S.L.C.b.",
"&X&X&X&X*X*XyXfXjXjXfXrX.X^.^.!.W.W.M.1.%.[ [ ( ( ! 8 L U L L ,X3X# W } O.O.$.-.s.&.A S N t.j.L./.[.@X@X X X[.`././.(.F.F.C.C.C.",
"&X&X*XuXpXpXpXgXjXlXaXtX~.W.Q.W.E.B.<.1.>.[ ] Q q 0 7 9 6 3 R 3X7XU i ] %.<.-.k.k.g.d.d.t.t.h.Z.Q.{.{.@X@X X[.)./._.(.S.F.F.F.C.",
"&XyXuXpXfXfXgXaXgXdXqXoXoX~.T.W.B.M.;.$.{ [ ] q Q q 5 4 8 P T 6X6XE Y i i o.k.k.g.g.j.l.j.j.Z.A.P.'.|.[.{.{. X`._.`.`._.F.F.F.C.",
"uXuXpXgXgXkXjXgXhXdX+XQ.Q.Q.Q.H.W.W.K n j h [ ..q q 9 4 8 L | 6X6XR 5 q w u O.:.-.*.d.j.j.j.G.G.K.P.'.[.{.OXXX[.`.`.@X X(./.C.(.",
"aXfXjXnXkXnXnXnXgXdXdXoXQ.T.T.^.~.!.E.<.%.,.w.X.t u 0 8 7 3  .bXbX..@ w w u g C +.G t.a.f.f.Z.G.G.G.P.{.{.#X&X X`. X X&X{././.'.",
"aXkXmXnXjXkXjXgXdX+X+XoXoXP.K.^.~.W.E.Y.Y.>.X.} h q q L 5 %  .bXbX6.@ ; < 1 y l C +.S a.d.h.j.Z.Z.Z.K.'.[.#X#X@X$X#X{.yX@X#X@X`.",
"aXfXjXjXgXgXfXpXeXOXoX}.}.}.Q.T.Q.W.T.I.I.O.%.>.u i L 3 3 @ 6.VXVX6.+ # # , y y m V Z G *.f.h.m.n.A.P.'.{.{.@XyXuXiX$XiXiXiX%X{.",
"pXaXfXjXgXfXpXdX+XoX}.}.}.}.H.T.!.T.N.l.k.<.<.c e i e q e + 6.ZXVX| # 5 0 : 2 y s v B B G f.j.j.j.A.K.'.].{.$XuXyXiXpXpXaXaXyX|.",
"pXaXfXfXaXpXyX%XOX].~.}.Q.K.H.~.W.G.g.g.=.=.O.i ; e # ] r.+ e bXVXW X 6...r y 2 y s v B V &.f.j.j.j.G.'.{.@X@X X&X*XuXaXgXjXhX{.",
"pXpXiXyXuXyX%XOX{.Q.].}.'.Q.oXoXT.l.s.*.=.=.C x u : > + 7X8 0 VXZX..# 3Xr , , O 2 y d B B G *.a.j.H.K.'.|.). X). X#X$XiXfXjXjXsX",
"$X%X=X$XyX=X$X#X].].%X+X}.].}.oXT.l.s.+.+.+.b c c c u #  .r.i VXVX| k.6.  = o O O 2 y p g z Z a.j.K.K.P.J./.'.'.).OX@XOXyXfXgXjX",
"[.[.XX@XXX{.{.XXXXOX%XXX].].Q.].W.l.g.S A +.o.u u i u > + q.bXVXVXbX,X. o r r o O 2 a , > > g *.g.j.Z.Z.G.K.S.K.'.#XfXeXOXgXnXnX",
"'.|.).).).)._.J.J.{.].P.Q.K.K.Q.P.f.d.S Z A A C u u u ; * + q.bXVXr.  r : o o = o : = : - : 1 b b z +.*.j.V.A.K.[.%XiXjXhXjXNXNX",
"_.].|.K.J.K.J.L.L.S.K.K.K.G.G.T.H.g.a.S Z A C A v u u # * 3 X r.3XX # # r r   r + + + * * * - < u u g +.j.p.j.{.+X%X%XsXaXjXCXNX",
"'.'.'./.S.S.L.A.C.v.V.G.G.G.Z.G.l.d.H S Z C v v c x u : * % - $ : # # # + + $ + * # * $ - * + * = < t v t.i.V.Q.'.'.dXeX%XsXmXmX",
"Q.K.K.S.L.S.C.V.v.i.h.n.Z.Z.m.m.t.a.a.S Z v v v l g w < - * - - - : # 3 - % $ $ * $ % $ - * # # $ = 2 s J u.m.Q.Q.tXdXqX].eXMXBX",
"G.S.K.A.C.C.V.p.y.u.u.u.h.j.m.m.f.S H S Z B C z l g w < < - - - # - # # - % * * # % % % $ # # # * : y N t.h.M.H.!.9XwXwXoXrXNXlX",
"Z.Z.Z.V.p.i.i.y.y.y.F y.y.f.h.h.j.t.t.S V A A v z g 1 ; - - - - # # # 3 * % - - + # * * *   # * $ o s J J g.k.N.R.!.T.W.8XxXzXwX",
"j.h.i.i.i.y.y.u.y.J V N S t.d.f.f.f.H S S Z A v l g 1 : - * * * # # # * * * % - $ + $ * * + * *   , V F J 1.,.Y.U.U.Y.H.W.R.9X8X",
"h.u.u.u.y.u.p.p.y.F S d t g z A a.d.a.*.S A B l p k 1 : e - + # # # # * * * * % - * + # + * * = 1 s J D H >.,.x.<.,.r.U.I.M.R.R.",
"t.t.y.t.J t.i.h.i.F F v > > j x C Z +.$.+.C z s k a u ; e 4 - # # # - : 3 - % % % - % % ; g g l V F F F H >.w.c.,.w.c.x.I.z.z.Y.",
"V F J G J J J u.J u V f > 3 i x o.o.x } } x l u p t 1 , 5 5 3 3 5 # 3 3 % * * # * * - + 1 B B M V V V D G } 7.w.>.c.x.<.z.c.e.z.",
"z B N B V S D y.u 5 d f , - 0 q j X.} h h j k u u w < ; 6 T L 7 5 3 - - : * # # # # # + + t d B B V V D B x  .7.,.c.2Xz.,.,.w.w.",
"l d z B B M F l 4 7 u f , ; e w w u j i q u u u q Y 0 6 E E L 8 6 5 3 3 - * # + # * + + r t f f B m V M l k w ( @.w.z.e.q.@.3.' ",
"w 1 w s d f g 6 6 L Y u 1 > ; R | h u i w w w 6 8 T 3 6 E T 7 L L 5 7 5 : : # + + + # + , s f f d v d p 1 1 ; 8  .@.>.0.@.) ` ~ ",
"- 4 3 > t w L 6 L Y U I Y w R 2.4./ 0 u k w 6 L 5 L 6 8 T L L Y U 0 6 3 - : :     o * , t s s s d g a a < - * 4 Y  ./ ,X1X~ 5.) ",
"4 4 - * ; L Y L Y U T T E ! / ' 5.) ) T w e 6 6 3 6 L Y Y L T T L U Y 7 - : : = : , , t y s y s s a t , : : * 7 Q ` 3.1XvX>X` 9.",
"4 4 - 5 7 6 T T L L T T E ! ~ ' 2.2.) / - 3 5 5 - 5 L 6 6 L E U L Y Y 7 - * * : , , 2 t y y y p a a o + $ * - 4 ! 4.0.cX1XvX' ' ",
"5 4 - 6 L 3 Y U 6 L L T T ! ~ ' 2.) ) 2.5 3 5 5 - 3 5 5 7 Y ) ~ U L L L - * + o : = , , 2 y y y y O . * * - % 3 9 ! 1X1X;X1X5.' ",
"6 6 6 L L 3 T T L L L T ~ ! _ 4.2.^ ) ~ 3 3 5 5 * - 3 3 3 ~ 2.^ ! E L L 3 - + + + o *   : 1 y y 2 o + % * * % - 7 7 >XvX' -X' -X",
"T ! 8 T L 6 P P 8 L L T E ~ 2.8.' T T 6 L L 5 3 $ 3 4 4 6 ~ _ ) ^ ! Y L 3 - * # * # * * # = 1 1 : + * $ * * - 3 7 ! ` cX;X' 9.' ",
"' ! P T L 6 8 L L L L U T ~ ` 2.2.T Y 6 Y E 7 7 9 % % 8 E ! ) ^ ! T L 6 3 - - 3 - - 3 3 - - > = + - - - - - - 3 & 8 ^ :X1X_ ' 9.",
"! / ~ 4 5 6 6 6 6 L L L T ! ~ _ 2.2.E 5 L L ! ^ / I ! ! T ~ ~ I T L 7 6 3 * 3 3 3 - 4 6 5 3 : : - 4 4 3 - - * - 3 8 ` 4.1X:X9.5.",
"` 5./ / T 5 6 7 6 6 L Y T T / 8.>X-X2.7 L 6 ) ' ! ` ~ T I T E E L L L E T T T 4 3 5 7 L 8 7 3 5 4 4 4 - % - - 5 9 7 8 ' -X8.-X' ",
"8.` -X>X! 6 9 6 7 L L L Y T ) -X<X:X8.3 I Y I ~ P P ! I T I E ! ! ! ~ ! U ) 2.` / E U T I L L 6 5 5 - - 3 - 3 7 L 5 7 / ' >X<X5.",
"-X:X4.I ! P 8 9 9 L 8 L T I ' 5.2.:X<XE 6 2.! L U ! L L T U I T ! ! ! ! ~ ) 4.' / I L L T T 6 6 6 4 3 - 3 # 3 7 T P ` ' ^ ` ' ' ",
">X9.I ` _ T U 6 L 6 L U U ! 2.^ ' -X<X2.3 ) 9./ 8.4.T 8 U L L U I E E E ! ) ` ) T L ! / ^ ~ U L 8 7 7 5 3 7 L I ^ ! ^ ' ! P ! ' ",
"8.2.~ ' ` ~ I L 6 6 6 L E ) ^ E ) 8.:X;X/ ' _ 5.-X` ) ` L L 6 L T T I T T 2.' ^ ~ ` ' _ ^ ~ T L L 6 6 8 L L E ) ~ 5 ! ! ! ! ! _ "
};
