/* XPM */
static char *_6a02300b8bf467cc750bfde21289dea[] = {
/* columns rows colors chars-per-pixel */
"64 64 256 2 ",
"   c #3F685F",
".  c #3A676A",
"X  c #355454",
"o  c #4A5758",
"O  c #4A685B",
"+  c #566A56",
"@  c #505B64",
"#  c #4A6768",
"$  c #586B69",
"%  c #4B7469",
"&  c #54736B",
"*  c #587769",
"=  c #4A6B79",
"-  c #576D74",
";  c #497579",
":  c #597977",
">  c #636A67",
",  c #667769",
"<  c #74776A",
"1  c #637C7B",
"2  c #687876",
"3  c #767B77",
"4  c #6A6C74",
"5  c #6F705E",
"6  c #847B76",
"7  c #89786E",
"8  c #5B8478",
"9  c #528377",
"0  c #77886E",
"q  c #63847C",
"w  c #6B847C",
"e  c #688777",
"r  c #7C847D",
"t  c #778779",
"y  c #7A937A",
"u  c #6A927C",
"i  c #848679",
"p  c #97877A",
"a  c #86957B",
"s  c #8E8D6E",
"d  c #9B9A7C",
"f  c #597883",
"g  c #4A7F81",
"h  c #687A85",
"j  c #757C85",
"k  c #6C7F91",
"l  c #8A7E84",
"z  c #5B8788",
"x  c #599898",
"c  c #548E8F",
"v  c #6C8583",
"b  c #6C8C82",
"n  c #638B8B",
"m  c #6B8B8A",
"M  c #658687",
"N  c #738484",
"B  c #7A8484",
"V  c #748C83",
"C  c #7B8C84",
"Z  c #7C8C8B",
"A  c #76878B",
"S  c #699489",
"D  c #73938C",
"F  c #7C938C",
"G  c #789787",
"H  c #688A94",
"J  c #748C93",
"K  c #7A8A95",
"L  c #6C9494",
"P  c #6C9C9B",
"I  c #679997",
"U  c #759493",
"Y  c #7C9493",
"T  c #749B93",
"R  c #7C9B94",
"E  c #7B949B",
"W  c #749C9B",
"Q  c #7D9B9B",
"!  c #74939B",
"~  c #5AA399",
"^  c #69A599",
"/  c #7BA29D",
"(  c #78A59B",
")  c #7AAA95",
"_  c #559AA4",
"`  c #6998A5",
"'  c #749BA2",
"]  c #7B9CA3",
"[  c #7798A5",
"{  c #7697AD",
"}  c #5AA6A6",
"|  c #54B2B4",
" . c #69A6A7",
".. c #74A3A2",
"X. c #7BA3A3",
"o. c #7CABA4",
"O. c #7DA5AB",
"+. c #7BABAB",
"@. c #74A9A9",
"#. c #79B4AA",
"$. c #6AAAB3",
"%. c #77A9B5",
"&. c #6BB4B7",
"*. c #79B5B6",
"=. c #69B0AC",
"-. c #75B7C3",
";. c #70C6C9",
":. c #359087",
">. c #838C83",
",. c #838C8A",
"<. c #898A87",
"1. c #968C85",
"2. c #84958C",
"3. c #8B9B8C",
"4. c #889786",
"5. c #979789",
"6. c #838C94",
"7. c #888D97",
"8. c #849393",
"9. c #849B93",
"0. c #8B9B94",
"q. c #8B949C",
"w. c #849C9B",
"e. c #8C9B9B",
"r. c #889397",
"t. c #939B94",
"y. c #969A97",
"u. c #978D99",
"i. c #A58E87",
"p. c #A7958B",
"a. c #A89A95",
"s. c #B29C93",
"d. c #89A388",
"f. c #8CA294",
"g. c #84A39C",
"h. c #8CA49C",
"j. c #8BAA9C",
"k. c #83A695",
"l. c #93A292",
"z. c #95A39B",
"x. c #9CA59C",
"c. c #93AB9C",
"v. c #9BA897",
"b. c #9AB39B",
"n. c #95A88B",
"m. c #A6A699",
"M. c #B6A69A",
"N. c #A7AE93",
"B. c #8B9CA2",
"V. c #8799A5",
"C. c #939DA4",
"Z. c #959BA7",
"A. c #8C92A8",
"S. c #A19FA7",
"D. c #83A4A3",
"F. c #82ABA4",
"G. c #8CABA4",
"H. c #84A4AB",
"J. c #8BA3AC",
"K. c #84ABAC",
"L. c #8CACAC",
"P. c #8DA4A4",
"I. c #94A3A4",
"U. c #9CA4A3",
"Y. c #92ABA4",
"T. c #9BABA3",
"R. c #95A4AB",
"E. c #92ABAC",
"W. c #9BADAB",
"Q. c #9CA4AB",
"!. c #87B3AA",
"~. c #9CB3A5",
"^. c #93B3AC",
"/. c #9BB3AC",
"(. c #98B8AA",
"). c #88ABB5",
"_. c #94ADB3",
"`. c #9BABB5",
"'. c #8BB2B3",
"]. c #88B7B8",
"[. c #94B5B4",
"{. c #9CB4B3",
"}. c #9CBBB5",
"|. c #9CB4BC",
" X c #9CBBBC",
".X c #94B8BA",
"XX c #A4ACA4",
"oX c #ABADAB",
"OX c #A7A8A7",
"+X c #B5ABA7",
"@X c #ABB3A3",
"#X c #A4B2AA",
"$X c #A8B7AB",
"%X c #B2B4AC",
"&X c #B7B5AA",
"*X c #A5ACB6",
"=X c #A4B4B4",
"-X c #ABB4B4",
";X c #A2BCB3",
":X c #ADBBB3",
">X c #A4BDBC",
",X c #A8B6BB",
"<X c #B2BAB3",
"1X c #B7B9B7",
"2X c #B1ABB6",
"3X c #C2A99E",
"4X c #C6ACA4",
"5X c #C7B7AA",
"6X c #C4BAB6",
"7X c #D4BAB1",
"8X c #99C2BB",
"9X c #8CC0BD",
"0X c #A7C4B9",
"qX c #B3C3B4",
"wX c #B3C4BB",
"eX c #BCC4BD",
"rX c #B8CBBB",
"tX c #B1C4A7",
"yX c #A1C69A",
"uX c #C5C7BB",
"iX c #CBC8B7",
"pX c #8AB8C3",
"aX c #98BBC3",
"sX c #90ACC0",
"dX c #A3BCC4",
"fX c #A8BBC4",
"gX c #B3BDC4",
"hX c #BABAC4",
"jX c #A7AAC2",
"kX c #C2BDC4",
"lX c #8AC4C5",
"zX c #9CC3C4",
"xX c #98C7C8",
"cX c #9CCDD1",
"vX c #ACC4C3",
"bX c #A8C7C8",
"nX c #B4C3C3",
"mX c #BCCBC4",
"MX c #B7C8C8",
"NX c #BAD4C7",
"BX c #B8CCD2",
"VX c #AAD4D5",
"CX c #BAD7D5",
"ZX c #A9CFD0",
"AX c #BADAE6",
"SX c #BDE8EB",
"DX c #C5C9C6",
"FX c #C8D6CA",
"GX c #C7D7D5",
"HX c #D1D0CF",
"JX c #C8E5DB",
"KX c #D7E8DA",
"LX c #CDDBE3",
"PX c #D2EDE9",
"IX c #E8EEE8",
"UX c #E9E1D2",
/* pixels */
"^ ^ j.T ..@.].{ $.%.e.oXF ( I $.#.*. .].@.).aX].+.*.=.@. .lX*.].].o.lX*.=.;.} =.%.pX.XpX).%.9XlXlX%.!.^.8Xj. XsXsXpX'.W T ) / L ",
"x !.q ) ( ; ).` g .XT.t $ D I ..].z +.W X.W X.T X.W +.X.K.T W / ( D S o.!.I ..^ pXK.[ ! F.cXn X.c O.8XT k.k.[.z { H J ^.!.8 8 ( ",
") 9 8 u (.0XsXaXaXQ G 4.y ~.>XV.MXt.DX< h.j.e JX<.HXm.HXC * F 3.r 3.l.F wXB KXj 0X/ V oX2 DX@XmXBXdX~.a j.G }.[.VXaX6.0.u O b ^ ",
") 8 e e 2.v I ' V.=Xc.a 4.l.R.E.x.%X5.oX3.C f.v.+X1.1.OXy.r 0 y.1.0 r < y.a.< +Xz.0.3.3 6Xy.y.<.Y ~.m.4.4.d.{.'.` h q.> + G 8 T ",
"/ T ^.R 2.T x } ] > 3.uXp.7 E.bX>XnX3 B 1XHXB Z ~.bX^.0.t.oXDX<.m.&Xy.2.t ;X^.!.j l 2XhXy.e.wX^.ZX( 3 7XUX5X(  .x  .w.e.m.T.!.( ",
"M L ( L Q ( } _ c E l.N.&XDXvX+.L.vXbX^.{.C.nXNX8X^ !.VXB.,Xr.HXhXr.NX{.bX#.].!.DXS.jXC.fXbXG.K.F.bX%X+Xs.OX#.~ &.*.W q.z.w.+.~ ",
"$.c LXP c  .. ` *.x !.NXh.`.`.J ! ! cXn VXpX^ *.I z z ..'.' aXH.# bXT z 9XI : z ..c ] ZXL cX..' E `.`./.DX^.&.;.x = pXn E AX} -.",
"` _ pX' =. .` ` }  .G.wXR |.`.E ] ] bX@.lX~ =.#.@.].@.xX..].zX' K.@.9X..+...'.K.*.@.P xX+.xX]...R.jX*XY mXj.*.} { { %.+.'.).-.&.",
"` ' '.K.I  .} _ &.z <X&X6XU.ZXsXL.bX0XF.^ #.^ c 8 : M q T S B.E.{.F S T M * : O z S !.!.D.0XzX9XsXMXz.qXHXeXP *.-.$.@.P  XaXH %.",
"z H.Q D D I c  .W 8.p iX7 a.P.'.[.{.m q 0X9 n T T }.& G.w.o Y PXPXMX& k.e V ) b 3 w.1 ) F # bXT BXZ.i d m.@XA ] P ` D.q / 8X'.J ",
"E w 5 0 l.c.~.h.T.n.a d d s 6X*XB. XW bX- j 7.7.U +.' m 2 6.7.B.Q.o B r.: S 8 F h l u.@ [.).L ,Xu.6Xd d yXa 1.%XP.Y.%XXXu 8 Y q.",
"9., y 3.@X5.eXqX<X@Xs s s M.HX*XLXH ).# R.K A ,X XzXbX|.A.h V.4 j 6.6.4 '.zXvX{.MXl 4 2X- O.).fXkXa.5Xa a yX4X5XeX:Xm.iXd.y t y.",
"F F 0 5 p.v.k.R %Xd s 7 p s.=XL.K.aX: J H z ).).A.7.A.7._.[ H J.V.f : dXR.7.j K E BXY M V.h ' .XK -X1.p.p.s p &XC ;XM.p.d.d.f.~.",
": !.j.G > I.g..XOXp p M.i.1.n +.^ z V.D.H ZX.Xv BX2XkXA.! bXH J q.h  XL.6.hXDXGXw.V.ZXJ |.V.J I ).. r p.iXm.>.B ^.^.y.> &X:XL.m ",
"%.P }.^.E CXfXaXaX7.OXy.=X: %.).!.S j.G W.2.0.HXy.oXQ.GX9.y }.C 3 <Xt.3.KXd.3.a IXm.i KX2 f.w 9X%.%.O wXa.-XU xXdX`.gXI.1XW...=.",
"&.g F.U bXJ.f H ).bXK *XU O.pXpXJX8 G 0 <X3.uXm.i 4.t 3.@X4.c.e >.3.&XuXb.a d.a N.qXn.&X, k.G JXcX` ].M DXY .X%.k k R.fX7.`.c =.",
"c K.fXe.U.8.n I ).aXA GX] X.L.PXJXt <.>.,.t.oXm.< t y ~.~.C D U e.r.$X#XqX0 0 a &X@X<.uXC f.j.}.PX!.[ ).nXE '.].f L L.1X>.DXH. .",
"( n q.oX,X0XW ^ xXaX).[ K.M b T.3.<.1.> nXZ XXDX>.>.4.~.~.9. X: j *Xq.z.qX2.y a eX1X2.eX,.I.V G D M H [ [ '.D.[.+.].E.$X&Xi U ].",
"c ( hXy.$ !.8XZXZXf J [.: 1 V F <.1.r.A [.^.R W.DXeXDXOXt 0XW L J J >XV Y.0XmXqXDX,.MXC.Z U.Z c.G G.V.k '.).X ^.VXH.[.> 1.1XL.; ",
"=.b B u.9.!.!.!..XM ZX. Y D D C t.> A P.# E.zXQ Y.B OX3 {.G.# R J 1 G.0Xu c.D Y.w R.Q.K gXA B 2.e 1 A [ # [.( M z z E.Z o r ..9X",
"x ( Z y.:XG.8XxXK.dXX V.w.R 8.z.3 wXm : Z.j J.bXH.}.F 0Xj.* $ gXnXQ & R CXG ^.E.fXaXk Z.6.R.*XOX%X;XX.f BXo T L cXSXZ.DXv.* L K.",
"^ +.v 2 =X=X8X#.'.M A.- m bXz.0.:XY vXJ.k A.k ` m R P.t O X y.-XnX{.O * e R g.T Q # A.`.6.gXr.y.m.4.zXn - Z.& ^ x aX1XOX3.t '.' ",
"^ 8 v Z l.f.S x ].U Z.- 0XR Z XXy.#X1 aXH.h { = = # 4 3 t FXeX5.c.$XIX0.2 $ : - h H.k [ BXZ.oX6X@X<X( VX7.j Y.S *.n GXS.F F.+.' ",
"^ #.CXh.> 0Xo.#.H J.K gXY Q FX%X%XDXW.M VXJ ; aXdXXX5.%XDXm.l.i i 5.XX%XKXc.h.bXbXE f fXR.I.FXx.4.FXE.Q hX7.w : *.].mX7.z.0X).@.",
"^ S 2.U.~.}.n ) : : E *Xj nXT.>.< y.$XI.D.'.; MX*XhX1XM.i.a.m.@X&XM.+X1.a.&X1XnXvXM U  XP.GX2.<., t.GXZ. XT w & X.n }.JXOXu.F. .",
"#.~ MXt.j.!.9 o.: Q f MXI.-XC 3.x.0 DXU.E.R 1 q.<Xi i v.5X4X6X+X+X6X7X4XM.1.6 :XW.8 R bXe FX4.v.n.>.hXA. X& F 1 K.= I j.< IXP } ",
"^ S #XZ.Y.R S ( h m V.{.1 1X>.t y j.<Xy./.Y.> m.uX5.a qXs.M.a.p.p.+Xs.3X3XM.i &X<X+ G bXg.JXT.d.a l.IXZ.L.D w $ D.z 8XGX6X<.n =.",
"^ ( w.oXz.~.F.#.n m h *XY.F DXc.~.FX<X3 nX>.4 HXM.m.qXN.M.i.6XS.2X6Xi.i.3X7Xs.m.FXe G ^.^.~.wXrX@XKX6.A.CXD q w o.K.vXt 5.DX!.c ",
"#.o.;X,.2 :X) !.S V.j q.{.F #X%X:X:X2.MX!.u 2.qXp 5XM.s.i.kX1XgXDXkX6Xa.s.3X3Xd qXb.w R }.G.1X<XmX#X9.bXA.8.G.% +.W e.i 5.t ( #.",
"o.S 8.,.x.U.) #.z M Z.A q 0Xr x.0.9.;XQ F O GXm.p.+X4X7 6X2X*XsXdXR.,X+XM.i.7XM.m.uX2 G Y.>X=X2.t.z.LX! q.y.: b #.L =Xx.m.y n W ",
"#.S , y.FX^.(.!.D E 1 ,XY 9.#Xc.E.vX8X8 2 <.FX@Xn.M.p.+XOX=XA.jXsX)._.1X&Xp.M.M.m.FXj.g.1 B.Z.*XXXz.' ! R.1 }.g.( zX8.uX1.y !.#.",
"^ o.3.i 0.0X^ g.D.JXB.D.e.j C , R : n U nXDXOX< &Xp.5.OXhXjX).! ` pXR.mX+Xp.s.iXn.x.0XvXP.B.A 7.2 0.[ _.q.B.PX8X+.L rXi a a S L ",
"#.o.i 1.t JX% g.j.NX XY J.*Xr 3.r.N D.E.>XnXm.0 5X+Xs.S.OXvXV.H c sXJ.gX&Xs.M.7X5.a FX;X/.r.h q.> B ] ).q.Z.PX8Xo.z DXr 0 a k.^ ",
"} I , a uX9.'.K.j.}.1 _.f j -XC 8.U.Z : 9.~.rX%X4Xs.s.4XhXjX[ pX%.%.`.1X+Xi.M.M.5.<X$XR & Y R.e.,.=Xf k A.6.BXL !.8XT.HXa * S ) ",
"#.^ R a m.DXD.( T * r.r.H fX2.1X<X=X;XV V O rX5.a.7X3Xi.+XHXZ.V.`._.gX+Xs.p 5XM.N.FX+ , w.G.W.z.c.9.BXJ.j `., S '.L W.T.i * )  .",
" .#.k.3.<.6.L ( * e 6.j sX_.3 m.2.z.9.NXe e #XiXa.4X4Xa.s.6X+X1XgXhX1Xa.p.s.3Xd @XqX* R CX9.~.wXuXmXr.*Xv R.F v ..'  XZ <.:X].&.",
"~ 9X0X3.r DX!.o.8 j.w E.sXB.DXv.qX$Xc.R NXb * qXM.M.iX4Xi.p.M.+X+X1Xa.p.4X7Xd d DXl.y (.(.(.FXb.tXIXB W.;XV 3.1 ' xX XE.DX,X' -.",
"&.^ y %XU.W.M +.* % : _.A nX:Xv.4.b.rXk.j.b o mXuXa.7X4Xp.i.s.7 1.a.i.3X7X3X7 4XqXe 8 8Xk.FX0Xf.n.n.HXC.MX/ w 1 .Xz aX|.OXgX$.$.",
"&.P KXu.#XL.z [.: G q bXV.MXl.4.v.t 0Xt  XD.1 Z DX6 p s.5Xs.s.a.s.+X5X4XM.p p 1Xe.: b 0Xj.NX3.tXtXy rXY wXg.c.: bXf _.BXj LX%.-.",
"} ].B y.1X{.D.( e e S  XD.MX4.4.y b.0X^.L.o.- >X:X<X6Xp.a.M.M.M.&X+X5X5.m.@X%XmXbX: Q [.g.NX:Xl.d yXMXD.vXF D q O.O. XnXnXq.%.;.",
"&...vX0.u.MXL...9 8 C vXM  XqXa l.<X;XP.dXV.H |.vX/.wXGX&Xm.m.0 i l.@XN.rXqXh.ZXvX! m VX7.>XmX%Xv.mX`.k GXK w.8 *.O.BX3 T.CXcX#.",
"$.*.0Xt 3 1Xn ..S S , J.bXL #XqXm.eX3 P.aXf .XE h D V t qXDX<X0.r FXFX;Xd.e & S ] K.H.`.MX6.DXOXeXe.{ AXA.6.Y o.*.).`.>.r R #.*.",
"` %.w i oXI.W P !.* J - ).|.2.>.r B e.fX! J.= h L T O G e , ;XNXGX~.G k.S % S ( H J H.K ,X,XZ.<Xt.Z AX! A.jX1 o.I ].gX1Xc.j.) *.",
"=.#.N y.HXI.zX+.S q # aXf aXh.wX$XwXW.4 A.A J aX X!.NX0Xu w D 0X}.^.: b bX0X(.8XaXL.E fXZ ,XDXz.#XGX` g jXo L.o.cXVXY nXb.* ) @.",
"} P W.6 3 w.' X.T G n X f E 9.* F , N r.7.Y GXA k.w G !.JXb v E.E.: F }.G.S u j.D.>XB.N e.r.0.z.C G K.sX@ fX] K.+.O.`.r.l.}.!.*.",
"=.#.x.m.2 {.K.].( & / O.h A 1 b.j.c.h.P.K MXA h.rX0XrXc.c.MXA A N h /.j.u tXNX0XmX2.nX`.8.W.h.2.R c.).; _.Q & VXVXzXPXA i DX'.lX",
"x @.r @XOXI.D.../ g.k ).` f w.e u t F y U.#XoXeXC l.4.KXf.T.=X0.A Z.q.0.NXyXe n.qXqX2.:XC Y w e 9 G M _.X.aXJX{.).pXV.GXDXZ.].pX",
"x +.0X4.-X9.M n K.|.A q.H.[ T CX0XG G C l.#Xm.qXt d.n.$XFXz.1XB ,.,.z.mXb.y d.y b.@X0.l.t f.* 0XPXb w.).CXT ZX'.%.] L.*XS.GX[ -.",
" .+.G.V 0Xk.w h V.I.l 2X1 I ` xXJXd.e y 3.5.4.@Xy 0 b.b.rXv.b.l.y.2.tXf.b.y b.y v.@Xi %Xt B 1 JX0XK.L.b rX(..X].W ] D.ZXZ.B.{ ).",
"..W g.~.j.~.B Z.=X6.a.m.$X1 ^ I (.C 0 * b.4.#XwXd.G $XrX~.#X$XC >.#Xh.#XrXe y y qX$X>.W.C e.v E H.O.Y rX@XeXF.zX.XV.*Xy.OX8.' %.",
"].F.0X4.i m.OXXXU.3.< @X0 t 8 Q J - B.J m  Xz Q nXDXnX,XE.[.L.V.8.K *XH.w.BX{.MX/.B.fXq.8.J K ! ).1 < 5X7Xs.1.OX-XOXa.l 1.eXg./ ",
"9 ) d.n.< +X3.r U.i p 5 5.< T.E.K J.o V.f L xX] A A.Z.V.fXJ.! A K h E bXJ.R J E J.LXA.K aXh [ ).L.z.v.5Xd p i.+Xu.<.kX7 i < R F.",
"#.^ u 0 5X5.rX0XT.c.0 a s M.oXe.{.E E : q.q.4 gXCX`.|._.Q.q.Z.6.j q.B.Z W.,X|.>X=XZ K hX4 V.|.ZXZXvXDX0 N.N.HX6 DXU.5.DXy u T ) ",
"x ^ 9 4.m.a.g.! 8.f.y y 7 5.m.q.=XM D.}.h > 6.N f M 8 w.7.q.j Z u.@ B 4 2.e $ Z Z B 6.r.Y Y Q CXL.BXXX@Xa b.%XQ.B.Y x.z., 9 F.^ ",
"%.%.[.j <.q.V.H K N ,.<.7 4 u.S.w 0X% b Z & q F D W.t A F P.F MXFX#Xt 2 2 % ~.u G ~.2 9.=X& vXU .XA.l +XqX2.r.' x ` J j N vX'.P ",
"$.H aX|.4 B.H H H.H 7.2X6Xl Z.*XE.D Y.M ( L L   # 2 1 $ $ q g.;X/.2.$ O e % % : : F ^.}.S ^.8X XsXjXu.6XuX9.L ` $.x V.A *X`.H O.",
"%.$...o. .9 { $.` k 7.<.<.oXR.[ ! L ].8X..c #...K.Q H.L.+.X.O.! V.U M X.( ^ @.+.].K.W '.X.xXo.H A.jX,X3 #Xv ).; ` { H S W L.! H.",
"` pXVXx ^ ~ -.x &.c 2 6X#XA L.h ; o..Xz ZXZXz zXH L H.K.' K.'.m & ^.[.: K.% : P '.W .XCXQ '.W ' A.*X,.l.IXD z *.g f P n Q vX] H.",
"%.n yX) ^ 9 x #.. S <.p l.~.^.T m m MX0Xv 3 OX*XD.T T L.W.C.B.W.-XXXK {.JXg.M }.MX;XA R.=XR.,XB.M ,X<X@X5.4.( z H.V.M V d.u I ~ ",
"'.}.!.yXu ^ n ' ).; 3 iXm., h.0XT.U.9.4 OX2Xu.U.=X(.{.h.>.OX:Xt.i oX%Xt z.=XMXh.q.B LX1X6.>.1XT.CXR + n.UX5XG I J h 9.* 4.0X) ~ ",
"Y U.>.i , 2.C.j h 4 l 5 7 1.3 %X3 +X6 > 3 * 2.t 1X7 1.OX< , 4.< < 5.t f.C f.0.wX4 <.5.1.+X<.+X<.y.2.t s p.s 2.R.j j > C l., ) G ",
"E 1 , i y.,.fXfXJ.*X6 C i 6 *X2 nX<.%Xi t G * c.3.oX@Xy.k.k.G e 3.< >.t 0XG 0XG.CX6.C.XX<.DX1XGX*XMX&X3 3.>.8._.aXdXCXI.G 2.R R ",
"_ c n 8 A.J -.$.f $.c 9 R X.O.` zXf W X.L z W ].z +.I x ].I . ^ T : S .. .x *. .pX).[ { _.aXK.bXJ.V.W.>.8 ) lX_ } $.' zXF.z X.P ",
"| :.~ ^ V.{ $.-._ _ ~ x I  .` }  . .@.` I L @.c  .~ } ~ x } =. .I *.x x &.=._ &.-._ cXc ).aX{ O.` ! J D #.&._ | ;.| c ' z P @.I "
};
