/* XPM */
static char *_e2cf907a6ab4de29a76d277b7196191[] = {
/* columns rows colors chars-per-pixel */
"64 64 256 2 ",
"   c #33437E",
".  c #775B55",
"X  c #745B4C",
"o  c #5A6A5C",
"O  c #6A654B",
"+  c #6C6755",
"@  c #776757",
"#  c #7A775A",
"$  c #7A6648",
"%  c #48527C",
"&  c #5B6967",
"*  c #497879",
"=  c #56767A",
"-  c #58706F",
";  c #676769",
":  c #796966",
">  c #7B7866",
",  c #786979",
"<  c #6C7776",
"1  c #615D5C",
"2  c #765D3E",
"3  c #895938",
"4  c #826237",
"5  c #885B47",
"6  c #8A5B57",
"7  c #925B49",
"8  c #88664A",
"9  c #956A4A",
"0  c #876856",
"q  c #956B57",
"w  c #8A7457",
"e  c #977759",
"r  c #92744A",
"t  c #A5775A",
"y  c #A36D59",
"u  c #886866",
"i  c #966C65",
"p  c #897966",
"a  c #987965",
"s  c #856977",
"d  c #987B74",
"f  c #8D7474",
"g  c #A77A67",
"h  c #A67B76",
"j  c #B47B6F",
"k  c #825A62",
"l  c #57837A",
"z  c #758679",
"x  c #6D8774",
"c  c #998359",
"v  c #8F8759",
"b  c #A7845B",
"n  c #898365",
"m  c #9C8464",
"M  c #988769",
"N  c #98936C",
"B  c #988876",
"V  c #989578",
"C  c #8E9376",
"Z  c #A3836B",
"A  c #A88768",
"S  c #B38869",
"D  c #A7936A",
"F  c #B4956D",
"G  c #AC8473",
"H  c #A68778",
"J  c #B48877",
"K  c #A39374",
"L  c #A79779",
"P  c #B69779",
"I  c #99A27B",
"U  c #A9A67D",
"Y  c #B4A579",
"T  c #C1977A",
"R  c #253C91",
"E  c #2B468B",
"W  c #38488A",
"Q  c #3C5388",
"!  c #3A4A95",
"~  c #3C5498",
"^  c #2E4A97",
"/  c #3B7697",
"(  c #3B55A2",
")  c #3C79AC",
"_  c #1D4783",
"`  c #444B8A",
"'  c #49578A",
"]  c #565A8A",
"[  c #474B96",
"{  c #495797",
"}  c #575997",
"|  c #554C91",
" . c #655A96",
".. c #695D91",
"X. c #58648B",
"o. c #4B6498",
"O. c #596798",
"+. c #4C788D",
"@. c #68658B",
"#. c #786A8A",
"$. c #797788",
"%. c #646B9B",
"&. c #676897",
"*. c #776A95",
"=. c #6A7599",
"-. c #797698",
";. c #6C7B87",
":. c #4C59A4",
">. c #555BA4",
",. c #4C4DA1",
"<. c #5866A5",
"1. c #487AA5",
"2. c #546CA8",
"3. c #666AA4",
"4. c #756BA4",
"5. c #6A76A7",
"6. c #7779A6",
"7. c #6A77B3",
"8. c #655EA2",
"9. c #453FA1",
"0. c #866C88",
"q. c #85788A",
"w. c #957C89",
"e. c #896D95",
"r. c #877897",
"t. c #957B97",
"y. c #956781",
"u. c #AD7C89",
"i. c #877AA3",
"p. c #8874A8",
"a. c #855F90",
"s. c #3E8B97",
"d. c #3D85A9",
"f. c #3D8AB6",
"g. c #3EA8B5",
"h. c #578988",
"j. c #488999",
"k. c #578999",
"l. c #58969A",
"z. c #4A8289",
"x. c #69898B",
"c. c #778784",
"v. c #698A9A",
"b. c #778798",
"n. c #699698",
"m. c #779999",
"M. c #6A958B",
"N. c #78A699",
"B. c #4888A6",
"V. c #598BA8",
"C. c #4A96A9",
"Z. c #5799AB",
"A. c #4887B5",
"S. c #588CB5",
"D. c #4A97B4",
"F. c #5799B6",
"G. c #678AA4",
"H. c #7887A6",
"J. c #6696A7",
"K. c #7898A7",
"L. c #7987B6",
"P. c #669AB5",
"I. c #799AB6",
"U. c #688BB2",
"Y. c #58A3AA",
"T. c #59A5B9",
"R. c #4DA6B7",
"E. c #68A5A9",
"W. c #79A6AA",
"Q. c #69A7B7",
"!. c #77A8B7",
"~. c #79B2B7",
"^. c #6CB3B6",
"/. c #5FA19F",
"(. c #509EC5",
"). c #57A5C6",
"_. c #51A4C9",
"`. c #64A7C5",
"'. c #77B6C8",
"]. c #70AFCB",
"[. c #649DC3",
"{. c #3F8FC0",
"}. c #8A8589",
"|. c #968789",
" X c #9A9787",
".X c #888598",
"XX c #988897",
"oX c #8A979A",
"OX c #989999",
"+X c #8A9A82",
"@X c #A68987",
"#X c #B58886",
"$X c #A69988",
"%X c #B89986",
"&X c #A68892",
"*X c #A89997",
"=X c #B69B95",
"-X c #9BA48A",
";X c #88A799",
":X c #99A698",
">X c #97B297",
",X c #A9A389",
"<X c #BCA58B",
"1X c #B6A888",
"2X c #B9B38B",
"3X c #A7A698",
"4X c #B4A494",
"5X c #B3AD95",
"6X c #B3AD9B",
"7X c #BCAC9C",
"8X c #B9A797",
"9X c #ABB599",
"0X c #BCB49B",
"qX c #B8B596",
"wX c #8888A7",
"eX c #9588A4",
"rX c #8699A7",
"tX c #9899A5",
"yX c #8889B5",
"uX c #8C96B6",
"iX c #A69CA2",
"pX c #88A6A9",
"aX c #97A8A8",
"sX c #96B5A6",
"dX c #88A9B5",
"fX c #96ABB5",
"gX c #89B3B7",
"hX c #99B4B4",
"jX c #86B2AB",
"kX c #A6A9A5",
"lX c #B9AAA6",
"zX c #A8B4A8",
"xX c #B7B5A6",
"cX c #A7B5B4",
"vX c #B7B6B4",
"bX c #A9A9B2",
"nX c #C29989",
"mX c #C5AA8A",
"MX c #C5B78B",
"NX c #C4AB97",
"BX c #C4B49C",
"VX c #C6B898",
"CX c #D5B997",
"ZX c #D8AC89",
"AX c #C6B9A4",
"SX c #D4B8A4",
"DX c #C4ADA7",
"FX c #AEC4A5",
"GX c #C8C296",
"HX c #CEC994",
"JX c #C9C2A7",
"KX c #D7C4A7",
"LX c #CFCAB6",
"PX c #8EB3C4",
"IX c #8B86C0",
"UX c #DFD9C4",
/* pixels */
"x.c.cXJXUXxX: L *X( L.p g t M a a OXnXD V bXI N D |.,.E [ q.e q G u J q.v.B h N V C v u XXW ^ @.|.u P w t @X<.6.@.DXmXgXT.E.pXkX",
"+.pXxXL L LXqXGXe.} &XS e 3X-XM S @Xu.5 M M D : d *.} }.] } oXH g B r.} W y.j 0 m p S d H.5.:.XXJ r A B G a XX<.=.AXKX5X3XxX1X1X",
"D.gXqXw @ vXUXkX5.2.M c %XpXoX,Xq f pXM h i a j &XO.{ VXXX} =.:.O.6.{ { { ' OXd G e h *.:.i.eXM e L aX9XN q H { #.4XkX|.BX,X@ n ",
"aX9XJX0X4XSXiXuX6.yXH a $XdXK.-Xe g %.| $.|.}.*.{ 6.b.VXBX-. .&.` 3.%.B |.} 5.>.%.H.2.` @.W 3.g c 3XG.N.$XJ H { [ o.] 4.*X<X# B ",
"HX*Xt.oXwX@.6.yXL.` XXJ M C -Xm m h } ` W U.} W { e.B AXqX&XxXY 7XeX, AXiX=. .]   4.<.}.qXX.@.S w  X;XsXK q  XH.O.O.H.3.' 3XAXSX",
"KXi.H.{ <.>.rX} 5.:.*.H w b w Z w wX! *.0.%.%.XXMXAXVXaX'.AX0Xp I KXU qX%X$X6X5X*Xi.q.SX7X{ 7.B g M M v Z g *XOX#XS |.i.} W .X=X",
"mX} 3.tX@Xu.XX.X .^ %.uX&XZ t G *.H.%.}.VX|.$XVXn C SX].P.hXU @ v lX~.R.dXJX,Xd MXNX<XKX*X*.5.&.h i g i u #X&Xe a Z e G i.7.6.XX",
"%.' 6.a a D 8 #XXXH..X` { %.H.>.[ ~ *.|.VXiXAX5X: p lXrX}.E.DXL NXfXv.Z.P.xXc + ,XxX'.>X%X.X' ! O.OXd w.oX|.g D V V D a B H.{ ,X",
"3.O.@XS v @XV D p eX~ } $.,.6.' e.9XqX8XjXQ.pXzX<XL xXQ.F.].zXNX>X[.S.S.V.jX1XL DX~.n.'.CXCXlX;.:.r.W ' ( h 8 V aXdX3XG J i.&.6X",
"%.oXw a :XaXaXm G #X} r.ZX*X=.XXBXD ,XCX].d.V.K.aXNX6XQ.z x pX,Xm.l.Z.U.F.!.2XNXjXH.wXfXY x P 4X3.%.@.] >.h D C ;XrXI n e =.:.*X",
"[ 4.J M 3Xb.;X Xw g O.{ xXHX1XmXMXO u zXm.v.F.P.Z.pX-XM.n x pX3Xv.o C.V.< h.:X:XQ.Y.P.cX,XO N JXN 4XlX} { &Xi m +X-XL a H uX-.oX",
"! *.H w N :X:Xn g B H.G..XmXgXPXqX*XN lXQ.D.V.D.o m.:XlXE.].#XA ^.s.d.d.* K.3XpX> z E.xXU %XDXbXaXVX%X*.-.b.d m q K i J p.>.wXuX",
"` G.iXh D w h i g r.! &.NXxX[.K.!.9XNX4XJ.h.A.B.z.P.H 9 6XkX9 7 *XF.1.) P.OXg aXn.$.m.4X6XfXK.Q.F.jX$X.X} ! q.d a g B wX} =.L.yX",
"@X|.*Xu.a 0 t H wX!  .6XBXqXgX.XK.^.fX4XM.- j.1.B.W.g k w q , > c pXT.Q.,Xa 6 ,X'.sX*X*Xn.T.G.Z.B.PXGXAX=XO.W yX=.@.L.4.  >.:.yX",
"P 0 h @X3XH.#.O.6.}  XY @ L 9XQ.J.n.x.*X3XQ.D.1.C.sXe #.p 5 s @ Z =XjX$Xt : s Z %Xw c pX1 l.V.S.v.bX,Xz 1X$X%.*.! X.` wX5.p.w.C ",
"N H K 8 p >.W ' X.@.DXkX$ M NXPXv.n x.6X8 D aXW.PX*Xt 0 . G 5 e aXE.F.dXt < : 5 : 0 g Q.s.f.Z.Z.T.3XD $ $XSXd oXlX4X[ O. XA J 0 ",
"sXaX Xa S *.[ }.lXL 5XAXNX<X0X3XN.m.^.3X6 $ e %X~.Q.dXV 9 J t $XY.B.1.T.$X3 i q -.@ H Q.1.) j.- E.lX,XY 0XzX5XKXSX$.[ t.Z i K m ",
"aXc.:XB w XX' #.qXqX^.!.K.dXK.3X=X,X,XP s #.0 *XR.o.D.E.-X8X,XW.= d.B.B.aXe T 2 q q P W.d.A.k.x.;XnXlXhXpX`.jXNXXX%.%.d M N ;XsX",
"kX>XC A g H.5.%.@XaXZ.Z.k.R.= v.*X5 0 0 X @ w pXA.B.j.+ b.,X3Xv.= F.z.; m.8XY S  XfXpXfX~.dXjX,X2XW.E.F.eXL.gXMX-.%.6.a r  XpX;.",
"Z c w p j :.` OXGXzXI.G.F.S.z.+.W.b #.-.r S q ;X* l.(.l E.5XAXtXT.(.T.Y.;X%XOXpXZ.d.A.!.L g i 3 =Xz x J.J.dXqXSX9X% >.u.b m :XaX",
"c f G N -.E t.BXL 4XaXS.Z.G.f.1.T.L 6 q 7 S T :X= k.R.F.^.lX,XxXG.b.k.jXMXAXK.o +.B.) Q.A . 0.q sXY.# v.dXxXN @ mXeX! }.w h i M ",
"XXeX#.X.5.O.lXF O B xXQ.+.* f.1.T.,X*X X$X,X=X1XpXQ.V.=.uX3Xv 1XjXG.I.lX1X<X~.C.Z.Z.V.jXb , , e 0XPX!.pXqX4Xv @ 2XXX} 6..XH q e ",
"XX2.`  .5.$.DXNXN $X2XaXh.x.D.Y.pXdXF.(.V.n.m.SX7X>XI.U.hX2XL VXcX'.cXP e xXK.S.R.h.o oXw 9 9 + w 9 P *X3X3XxX0XJXXX&.[ ! X.oX*X",
"wX^ .XCXNXNX9XsXbXvX5X-X4XiXOX,X$XQ.+.d.h.; ^.6X1XL 0XPXsXMXAXDXF L SXqX2XzXH.b.F.`.n.3XP G 8 e.s 9 OXM.h.Q.K.dXkXU 5X X] ! r.p ",
"wX} ' |.JXMX].Q.H.Q.M.K.1X5 9 6 b dXf.C.D.Y.F.fX%Xa CX1XV q.&.&.-.$.$.iXCXcX`.!.aXkX5XnX<Xa 0 8 6 -XT.+.= D.G.V.Z.zXVXq.W &.j w ",
"S w.{ 4.-.1XhXP.b.P.c.x jXA , *.q $Xl.- l.).v.K.vXKXFX;.*.3.6.i.Q } 4.&.< L BX0X1X<XqX-XrXrXfX XS dXj.d.F.U.S.J.).kX|.*.5.|.d A ",
"a a rX&.-.GXAXxX~.W.> J.'.<X5 p X b pX+.T.V.b.).sX=X$.*.3.R %.uX^ >.uX@.4.r.=XGXw U bXE.; l s.Q.pX^.B.2.D.B.F.J.cXJX9X%.o.q.a m ",
"e g #.! XX5Xp L 7XaXI.aXK a 6 9 F T %X3XaXzXhXkXI w.*.yXb.} t.d y.&Xb.E [ %.b.AXqXlXK.T.k.C.f.1.pXtXT.d.- < T.3X1XM Y |.W e.b a ",
"M a $.W XX,X@ v 8X2X:XP 5 u -.k 8 #XP qXmXY L KX@X*.E [ XXu.y j y S u.*.H.r.=.@X0X'.$.F._.j.B.D.fXK OX-XrXP.,X2Xn 1 *X*XQ 4.n q ",
"e d wXX..XHX%X6XhXn.v.oX,Xq @ v  XpXoXaXBXL B JX.XG.2.} u.t $ : . O q J XX<.@.}.:X].m.V.R.; h.dXS . q w H ,X6X6X1XP MX*XX.L.r.H ",
"S q.:.4.*.1XcXdXZ.J.& j.E.OXJ kXQ.= & [.!.zXVXBX@.$.tX|.y @ p H D p u g #._ ' q.nXlX9XjX^.M.:Xw 0 *.$.0 ,XrXn.~.aXzXxX=Xq.] ( >.",
"4.| { }.qX,X^.V.U.Z.B.A.d.Q.:XV./ V.z.C.x.v.aX$X-.% Q s e : M 5 0 g : q d L.e.X.3XV B mX=X&X%Xa e $ q 4X~.z c.P.wXQ.^.xXKXNXw.E ",
"%.` ] &XxX3XR.G.S.F.C.1.) I.sXk.+.S.h.F.=.b.pXK -.' ~ 0.y . d @ 6 d : q d H.*.%.5X,XB %X$X5X=Xa @ 0 : =X~.x z T.rXQ.dX7XBX=X4.E ",
"#X$.^ *.q.1XhXI.l.C.o k.T.sXJ fXU.* & Q.v.aXBX5X@.-.tX@Xt + > Z L @ : j , _ ' q.=XBX3XK.n.n.OXp $ 0., 5 1XuXK.gXkX6XJX*X-.] { *.",
"a B yX&.r.HXMX6XfXK.v.K.OXe . e }.pXn.pX3X$Xp 5Xc.-.3.| w.g @ 0 @ @ g j t.<.%.f kXQ.=.J.C.; h.pXF @ g y L 3X2XqXU V 2X*X<.6.q.G ",
"w a $.W OX,X+ M ,X5XaXF 7 u -.u 4 %XY BXVXP L KX*X&.^ ! XXJ t g e J h  .H..X&.*X0XPXc.F.(.C.B.D.aXL ;XN.J.G.tX2XB X @X*X! =.a 9 ",
"Z A q.W OX6X# K VXaXpX:XJ p @ 8 P P nX9XaXkXhXzXK |.3.H.rX} e.#Xi t..XE ! *.H.AX2XxXM.P.B.j.) B.pXfXF.B.= - ).aXNXN qX}.! e.G B ",
"8 a wX] -.VXNXqXgXW.> n.'.<X7 q X e OXk.T.J.b.`.sX=X*.4.3.R X.uX! { uX&.3.w.$XGXw $XvXE.- = D.Q.rX!.s.:.C.C.D.H.gXGX4X..O.|.w e ",
"S &X<.6.-.Y bX].b.F.z c.~.F u %.9 $XJ.& C.R.G.oXvXHXAX-.#.8.H.i.` } -.&.q.V 6XAX<X7X2X:XpXtX:X*XD dXC.B.Z.P.j.Z.T.kX|.*.<.|.e F ",
"|.@.{ $.qXNX'.T..X!./.J.,X8 0 6 e gXf.j.F.F.D.fX4Xw HX1XK $.=.@.-.q.$.kXCXhX].W.pXkX6X1X%XZ $ 0 6 L Q.= = D.H.V.Y.zXKX@X^ } @X8 ",
"U.` r.SXJXMXkXhXhXzXzX3X$X*X*X XP !.1.) l - Q.lX<XL 0XgXaXqXJXlXL J SXVX,XqXK.b.F.P.G.3XL P 8 0., 7 V m.V.Q.W.gXzX X*XB } W -.B ",
"eX' } @.=.q.DXMXL 4X4X:Xn.b.Z.Y.jX!.T.(.k.v.pXVX<XsXW.U.hXMXL MXzX].cXP w vXK.D.R.M.& pXq 7 9 @ e e P 3X3X8X<X7XSX*X3.[ [ #.t.*X",
"eXi...{ 6.&.lXU O n 8X~.+.* d.1.Y.kX$X:X-XI 1X=XpX!.V.$.uX3Xw 1XgXJ.dXkX1X4XdXY.Y.f.B.W.H s , e xXgXN.I.lX<Xv O 8X XX.wXeXJ 8 w ",
"M B J C 6.W |.5XN %XaXP.Z.V.f.1.T.L 5 i 8 J nX$Xl k.).Z.`.xX5X6XH.G.k.~.mXAX;X- - C.1.Q.D . 0.0 kXP.p n.~.vXV a 7Xq.[ < # a c M ",
"Z b a 0 d >.W =XSXvXdXG.S.F.z.+.!.A , $.9 S q :X+.z.(.h.Y.,XBXaXT.(.Q.C.rX<X$XrXZ.B.A.!.I S t 4 ,Xn.x n.n.dXxXVXzX] ,.@XA M aXaX",
" X>XB b S -.O.%.K sXD.j.k.F.< x $X5 i 0 $ @ 8 aXS.d.C.& M.,X5Xv.- D.B.+ m.mX<Xb ,XaXfXdXW.].W.:X=XpXE.`..XH.'.mXq.3.6.a r V pX= ",
"sXb.:XB u XX3.%.4X7X!.Q.n.~.E.rX5X X,XF s e.@ *XT.+.A.T.,X%X$XjX= B.B.) aXa J $ 6 q H pXB.d.B.< m.7X7XcXaX].PXMX*X&.O.|.g m kXaX",
"hXtXaXb M 0.` q.qX1X4XvXDX5X5X8X;XK.].3X7 : q P pXE.].$Xr J t $XQ.B.1.R.-X4 9 i $.: A Q.1.1.B.< Y.6XU %X6X0X,XKXKX}.[ r.B r D M ",
"N $XV 8 a %.` ] ..&.4X2Xw n qXcXJ.n l kX9 b :XdXdXkXD 8 u A 5 q *X!.C.PXg : , 3 u 0 c Q.s.C.V.F.P.>XL . B AX}.r.$X4X{ o.XX@XS q ",
"F q m h iX=...{ =.<.t.NX@ C 9XI.Q.c.M.3X$XQ.g.V.l.dX@ , #.3 u , e $XsX*Xg 0 , A %Xr t fX& v.Z.S.v.fX<Xn 1X3XX.-.! { ~ eX5. .i.+X",
"h %XL u.B p h B uX{ } 3XCX1XPXoXb.T.aX3XK.< j.( B.E.J 0 p q s : c pXT.Q.aXe . 1X'.hX*X3Xv.D.V.J.v.^.JXJX&XO.! yX6.*.H.6.^ } :.yX",
"<.5.OX#XD 9 G 8 c s ! &.4XNX].m.W.>XBX7Xn.l S.C.j.I.|.5 %X6Xe 3 $X`./ ) T.:Xt aXV.z n.3XBXkXdXE.(.dXL c.@.^ e.M e S d XXO.%.I.yX",
"Q } $X0 M  X XN m |.6.5.$.NXhX~.xXlXm 7X^.Z.Z.R.& x.4X3X~.].,XZ W.j.1.B.* n.8XpXx x.Q.zX,X$X8XvX>XNXDX@.H.r.g g w M e J w.%.H.uX",
"[ *.J J  X;XpX Xu G -.Q aXKX<XBXMXw : 3XrXG.A.U.Y.K.,Xm.> x m.6Xm.1 D.S.= h.OX>XW.n.J.hXmX+ n HXV $X8X@.Q XXd c +X>X%Xa e IX7.eX",
"o.H.a u :X;XpXN A J  .@.CX5Xq..XBXV V MXdXB.J.G.jX5X1XQ.c.v.pX,X;Xk.R.V.F.`.7X2XhXU.wXaXMXn L 4X*.O.]  .{ p P N aXx.:XH Z r.` *X",
"6.5.H A M %XV K w |.o.} }.} 4.o.r.6X0XqXaX`.Q.zXNXL xX!.Y.`.kX0XkX`.V.F.x.pX<XH 0XfXE.].qXSXlX$.! yX{ | ( }.6 B aXfX:Xg D e.:.3X",
"O.! r.Z 9 D w J &X.X.X` ,.o.H.3.` Q 3.}.qX,XlXBX# > 7XK.XXI.9XP <XaXJ.V.P.zXV O V SX~.hXP .XX.! @..X|.h }.tXh D B L m g B wX<.XX",
"MX&.:.tX&Xu.H XX&.( 5.yX.Xg d h -.%.6.$.CX$X$XHXM n CXgXF.dX2X@ p BXgXZ.E.AXNXd <XCX$XKX7X6.&.6.h a y g $ #Xu.a e S p G i.O.H.q.",
"AXeX6.<.<.2.wX<.O.<.{ |.w D 0 Z a XX` &.t.&.%.}.qXBXCXaX^.vXVXB B HXmX9XnX$X1XqX$X-.r.DXVXo.<.|.r M B C v S *XkX&Xh XXr.' } .XlX",
"KX=X$.b.-.] p.L.wX{ e.#Xv M OXM a t 8.! E 3.2.W ] -..XBX0XP 5XqX6X|.q.xX6X*.&.` ` <.3.&.MXX...j e C aXaXV q H 6.o.O.5.3.| iXAXVX",
"lX6XSXxXNXDXiXrXwX7.XXa D kXrX-XM a r.Q $..X|.0.{ 6.-.MXSXr.O.] ] :.4.$. X>.5.o.*.H.%.{ ] ` 2.G a ,XK.m. XJ F <.` %.} -.oXY # @ ",
"C.gXGXM + BXUXlX7.=.|.c N dXoX>Xe w tX|.j a a j XX&.! 0X*Xo.L.,.} 5.3.W } ( }.H G r K e.:.p.yXV g N 9X3X Xw c O.X.NXNX&X1XBX> n ",
"k.J.vXV p LXJXAXr.>.t.J M ,X:XM J h @Xq p a N a a r.{ q.@.{ XXd A M XX@.E a.G 8 S w G a oX5.[ -.J w M Z j h &X6.%.=XKXqXpXkXlX0X",
"v.x cXAXLXLX> L 6X' L.a e A M e w *X#XJ V >X-Xn S @X>.R W e.a w S 0 j h 7.B t C  XC v p H { ! } t.B Z a e @X<.<.@.*XVXgXF.rXK.pX"
};
