/* XPM */
static char *ba64d081a1934d6f8075fb214c6828ee[] = {
/* columns rows colors chars-per-pixel */
"64 64 256 2 ",
"   c #282D46",
".  c #3B2B49",
"X  c #29354C",
"o  c #37334D",
"O  c #2E3A52",
"+  c #383A56",
"@  c #362E56",
"#  c #3D3C65",
"$  c #341D49",
"%  c #46374E",
"&  c #473957",
"*  c #523B5A",
"=  c #45294B",
"-  c #463D67",
";  c #563C64",
":  c #39445B",
">  c #37495E",
",  c #3B4666",
"<  c #3D5968",
"1  c #375671",
"2  c #376878",
"3  c #367875",
"4  c #2E6A76",
"5  c #44455C",
"6  c #56435D",
"7  c #484867",
"8  c #554867",
"9  c #445463",
"0  c #48566A",
"q  c #575569",
"w  c #484C73",
"e  c #564B76",
"r  c #4A5976",
"t  c #535B73",
"y  c #595877",
"u  c #65596B",
"i  c #675A76",
"p  c #6A516F",
"a  c #47666D",
"s  c #496775",
"d  c #576878",
"f  c #4B747A",
"g  c #58747B",
"h  c #586A66",
"j  c #65666B",
"k  c #67687A",
"l  c #766B7A",
"z  c #67767B",
"x  c #776E7B",
"c  c #23253C",
"v  c #88687D",
"b  c #5C8678",
"n  c #64877E",
"m  c #336F81",
"M  c #595A82",
"N  c #5B5F9E",
"B  c #695A84",
"V  c #745985",
"C  c #576987",
"Z  c #497485",
"A  c #587887",
"S  c #5E6995",
"D  c #5A7394",
"F  c #597A97",
"G  c #466B83",
"H  c #686888",
"J  c #766B88",
"K  c #677686",
"L  c #787789",
"P  c #6A6C95",
"I  c #796C93",
"U  c #6B7C9D",
"Y  c #687697",
"T  c #767898",
"R  c #686BA5",
"E  c #697CA4",
"W  c #797AA4",
"Q  c #5E7FA8",
"!  c #83798B",
"~  c #847B92",
"^  c #887A96",
"/  c #89708D",
"(  c #857CA6",
")  c #917BA2",
"_  c #5B8688",
"`  c #59859C",
"'  c #4C889B",
"]  c #678589",
"[  c #76888A",
"{  c #68869A",
"}  c #78869A",
"|  c #6A979B",
" . c #77939A",
".. c #719589",
"X. c #5998A5",
"o. c #479CA3",
"O. c #6484A3",
"+. c #6B84A3",
"@. c #658AA3",
"#. c #6B8AA4",
"$. c #6A87AB",
"%. c #7483A3",
"&. c #7C83A3",
"*. c #728CAA",
"=. c #788AA8",
"-. c #6896A7",
";. c #7392AD",
":. c #7998A8",
">. c #6B8AB4",
",. c #778BB8",
"<. c #6E98B4",
"1. c #7494B3",
"2. c #739CB5",
"3. c #7A9BB4",
"4. c #7C94BC",
"5. c #7B9CBD",
"6. c #7797B8",
"7. c #5BAAB0",
"8. c #77A5AA",
"9. c #6AA6B6",
"0. c #7BA2B3",
"q. c #79A7BA",
"w. c #6BB9BC",
"e. c #7CB2BD",
"r. c #77B7BA",
"t. c #6AA7AD",
"y. c #7FAA97",
"u. c #76C3BF",
"i. c #7B99C5",
"p. c #7A8FC5",
"a. c #7DA3C4",
"s. c #7AAAC5",
"d. c #68B9C3",
"f. c #7AB9C9",
"g. c #71BDD2",
"h. c #6AC7C5",
"j. c #78C7CA",
"k. c #75D2CC",
"l. c #7CCBD4",
"z. c #79C7D5",
"x. c #7BD5D5",
"c. c #6FD2CA",
"v. c #7ED1E3",
"b. c #838A8E",
"n. c #848799",
"m. c #889299",
"M. c #838BAB",
"N. c #8886A8",
"B. c #958BA9",
"V. c #8596AA",
"C. c #9697A9",
"Z. c #878AB2",
"A. c #948CB4",
"S. c #8C9CBD",
"D. c #8697B6",
"F. c #9697B9",
"G. c #A599BD",
"H. c #87A7AA",
"J. c #83A3BC",
"K. c #89A6B7",
"L. c #97A7B9",
"P. c #87B6B6",
"I. c #98B8B9",
"U. c #90AEAA",
"Y. c #A4AABC",
"T. c #A2B7BE",
"R. c #A0A2AF",
"E. c #87A999",
"W. c #97C2BB",
"Q. c #A5C3BE",
"!. c #849AC3",
"~. c #8A9CC3",
"^. c #8798C9",
"/. c #969DC6",
"(. c #8B99CE",
"). c #A69EC5",
"_. c #8BA5CB",
"`. c #87A7C7",
"'. c #94A3C5",
"]. c #93A5CB",
"[. c #94ABCC",
"{. c #9CABCC",
"}. c #99A7C5",
"|. c #87B8C8",
" X c #97B8C8",
".X c #8AA8D5",
"XX c #96A9D6",
"oX c #88B9D3",
"OX c #9CB3D5",
"+X c #97B9D7",
"@X c #A4A8C8",
"#X c #A7B6C7",
"$X c #B4B9C9",
"%X c #A2ABD2",
"&X c #B3ACD5",
"*X c #A6B7D8",
"=X c #B4B1CE",
"-X c #9CB2E1",
";X c #A7BAE5",
":X c #ACB6EB",
">X c #8BC4CC",
",X c #86C8C9",
"<X c #97C7C9",
"1X c #86D4CD",
"2X c #8BC3D3",
"3X c #83CCD4",
"4X c #8BCCDB",
"5X c #87C7D7",
"6X c #96C9D8",
"7X c #82D2D4",
"8X c #8CD3DD",
"9X c #87D9D9",
"0X c #9CD4D4",
"qX c #96D8D8",
"wX c #97D0CD",
"eX c #A7C9C9",
"rX c #B6C7CC",
"tX c #A9D5CB",
"yX c #A6C7D6",
"uX c #B6C8D6",
"iX c #A2D2D5",
"pX c #A6D7DA",
"aX c #B5D6D9",
"sX c #B1D4CE",
"dX c #89E3DD",
"fX c #98E4DD",
"gX c #97C8E1",
"hX c #8ADAE2",
"jX c #93DDE3",
"kX c #99D8E5",
"lX c #93D1F2",
"zX c #A6C6E4",
"xX c #B3C8E7",
"cX c #A7D9E6",
"vX c #B5DAE6",
"bX c #B5C6F3",
"nX c #A4D6FB",
"mX c #B0D0F7",
"MX c #88E3E4",
"NX c #97E7E8",
"BX c #9CE8F3",
"VX c #9CF8FC",
"CX c #8AF2EB",
"ZX c #A7E5E9",
"AX c #B5E6EA",
"SX c #A6E9F6",
"DX c #B6EAF4",
"FX c #A8F5FB",
"GX c #B5F7F7",
"HX c #A9F2ED",
"JX c #C8D6DC",
"KX c #CACBD3",
"LX c #CCDAE2",
"PX c #D7DBE5",
"IX c #C9EBF0",
"UX c #D7EBEC",
/* pixels */
"9 m._ ..j m.4Xj.l.qXC.j E.b m.9 + + 7 , @ &X+Xz.z.6X{.- # , X 5 8 b...n h  .<X3X5X6XC.h y.b n.8 % + 7 + @ &X6Xf.z.cX@X- , : + + ",
"m.T.Q.W.UXz -.4Xs.t.[ uXI.sXrX[ + T M.%.T r a.2Xs.`.M P } { C   n.aXP.tXIXb 0.>Xq.8.] sXP.tXrXb.& T =.%.W r 5.4Xs.5.w Y *.Y H 7 ",
"g sXy.pXAX6X{ I.L.f P.DXAX .eXn   M.[.` ].OXw xX%X1 {.3.6.[.&.  z sX..pXcXcXK L.L.g |.SXAX| rXx X =.J.#.{.{., xX;X, *X~.3.J.U O ",
"b.I.vXkX2XqXvX] g AXcXf.<XAXQ.z O V.3.1.O.[.U w S %.[.+.`.*.W   m.R.AX2Xl.cXaXK k vXcXf.,XAXQ.n + V.;.2.$._.D , w S *X@.q.D.=.7 ",
"x KXvXgXSXkXf.qXqXw.hXSX4XpXLX! o T {.$.oXs.oX`.Y >.i.6XD }.( * v PXyX4XFXf.4XwX0Xr.8XVX4XpXPX! = W {.O.oXs..X$.O.i.gXzXD %X/ = ",
"x j  XzXkXf.VXc.h.BXj.8XoXyXL n.&Xw ).OXs.f..Xa.i.oXoX`.Z.&X; ) / l  XkX3Xj.FX3Xl.FXc.hXl.eXL n.=Xe %X[.i.f.s.$.6.a.oX+X{.&X; /.",
"H.} L uXt.BXl.g.hXd.9X8XpX] ` q.` O., P `.s.i..X`.`.i.~.W ; Z.=.F.K } eX7.FXf.5XlXd.dX9XpXK { J.` $., P a.s.i.`..X.X!.XXN.- R ,.",
"0X;.} b.0Xh.g.SXlXv.9XNXg U.X.4 4 i.*Xw $.1.6.mX_.p.D.E M ( ,.zXzX&.L K HX7.4XlXlXl.x.CXg K.-.2 4 2.%Xw $.>.6.bX!._.4.W M ( S.;X",
"gX1.} L AX7Xz.lXlXv.h.wXg L.X.4 4 F ].M D >.`.bX;XXX!.W B ( D.zXzX=.n.z GXj.2XnXnXv.h.3X_ L.-.2 4 ` {.M D >.!.bXbX_.D.%.B ( ,.xX",
":.} K $Xf.FX4Xg.v.d.NXw.aXA | 9.-.>., E >.`.i.4.!.i.$.4.W - %.=.V.T K <Xj.VX4XoXz.s.MXh.iXA { 0.$.,., T >.a.5.i.!.4.>.,.W e E *.",
"! J [.DX2X5X8Xj.z.NXl.8XgXK.K C.}.y /.[.s.gX6.E ,.`.6.a./.&X- B./ J }.SX7Xz.4X>X4XkX8Xz.ZX0.L C.}.r /.].q.gXi.E >.`.`.5./.&X- ) ",
"j KXIX>XIXoX,X0X1X3XkXnX|.IXLXz & N.}.*.+Xa.$.S Y !.6.-X%.).N.* / KXIXf.IXf.>XpX<X6X4XFXd.IXKXx & ( ].-.+Xi.+.N P !.a.+XY {.( ; ",
"n Q.tX6XoXcXuXK z vX6X6X6XAXU...X { #.1.>.%XW e w ( %XE `.#.&.  b.T.iXqXf.cXuXx x uXcXf.cXpXI.[ + { #.1.=.%XW M e W %XU !.#.U + ",
"n UXU.<XvX XK L L k *XvXAX:.sX] X D.yX#.%X).- A.( - %XZ.:.`.D.X n JXH.wXAX*Xk ! ~ J  XDXpX8.rX] O D.yX#.%X).- A.( @ %XF.3.[.D.+ ",
"[ sXW.eXJXL _ K.@.{ z JXQ.tXrXV.  T S.=.A.7 %.J.4.=.e T { U T O b.rXP.tXJX[ H `.=.K K rXtX<XrXC.  T S.=.N.7 +.!.D.+.e W %.{ Y + ",
"9 } ] n x k 0.X.X. Xx u b.[ [ 5 5 + O @ ; N.;.zXoX1.N.8 : X : 5 8 m.b ..j K ;.-.-. Xx j ....L 8 & + + X ; A.;.cXoX1.N.- X : : : ",
"& q > 9 i ! J.X.-.-.^ l & 5 e & = L < d i N.:.0X6XK.N.8 g < x o * 8 , 9 u ! 0.-.X.| / i , 7 e & o L 9 d i ^ ;.kX4X0.N.p t d g : ",
"I M T T A.y } 8.;.K.7 B.N.T / i k LXiXtX#Xa 3.#.0.| < yXiX<XaXk i J Y Z.).0 V.-.0.}.8 B.T T J y h LXpXuX#Xt :.-.q.| 0 uXeXeXeXz ",
"  L.{.:.}.@XM H ( q }.@XL.@XP > d eXwX1XZX>X0 %.Y 0 |.kXwX0XW.d   D.$X=./.&Xe J J 7 {.].L.#X} 9 f wX0X<XAX>X< +.Y < |.cXwXpXI.f ",
"r } V.'.{ *X( I V F.*XF '.V.} 5 g <Xj.NXk.jX Xr C J.fXx.k.,XAXa 0 &. .K.E OXZ.I B /.xXF L.V.T : f W.u.ZX3XkX|.s Z 0.kX1X,X,XaX3 ",
"J n.L.*.[.+X4.D.,.Z.OX.X{ }.F.u 0 eXGXc.dXk.kXX.2XSXd.x.1XGXT.q i N.K.3.*XyXD.,.(.D.[.+X;.'.C.y > <XGXj.9Xl.hXX.5XFXw.3X1XHXI.9 ",
"k k @X*X`.-X:X,.p.>.zX-X XV.k Y.L.a |.x.h.hXkX5XZX8XqXNXqX<Xt L J t *X*XJ.bXXXi.(.$.OXyX;XS.k #XL.a P.3Xj.9XhXz.NX3X4XkXZXI.d L ",
"] { k F.XX(.!.:X(.(.`..XM.0 <X0XAX<Xa q.BX8X|.`.#.oX8XkX Xa  . ._ | 0 A.i.Q (.:X-X-XXX+XM.9 <X<XGX,Xa D.ZXkXf.s.` |.6XpX*X0 8.8.",
"3 | T y XX(.XXR R XXi.6.H #XwXdX,XpXuXZ >XNXa.D D 1.|.2.: } A f 3 | n.e (.p.(.R W :XXX,.i $XpXqX1X0XrXd 2XkXq.G D q.oX3.q J ] 3 ",
"3 8.H J !.i.:XN N (.>.i.P #XpX1XwXwX#X< 7.f.`.C D @.8XDX0 L :.2 3 r.k H p.,.bXR R -Xp.i.P #XZX1X1XwX#X0 -.f.9.Z F X.6XmXq ~ :.4 ",
"|  .y N.^.;Xp.(.XX-XQ 1.=.0 iXpXpX<Xf e.hXhX2X<.-.|.4XSXK.9 K. .|  .t } `.-X>.XX(.-XE ,.n.7 yXsX0X<XZ J.kXjX5X9.<.f.4XDXS.0 H. .",
"! q #X{.+XzX>.i.s.-X-XoXyX%Xd $X#Xd >XMXx.x.7X8Xl.BXl.d.qX|.5 b.L q {.[.+XgX>.p..XoXoX[.zX{.y T.#Xs <XqX7Xx.9Xv.c.BXx.j.0X X< [ ",
"8 @XD.{ 6Xa..XE >._.oX+X{ }.B.u q I.NXc.CXh.NXNXX.hXh.dXx.HXT.8 6 =XD.@.yXq..X$.>.`.[.<X*.{.N.i 9 I.NXj.NXh.MXMXo.hXj.hX1XAXT.0 ",
"y K S.D.{ zXD.H S Z.;X` =.V.&.7 g iX1XdXh.c.q.Z r f.NXc.NX1XeXr q T C.K.$.zXD.P P M.-X@.:.V.} 7 A fXwXfXh.1X9.Z 2 |.NXj.fX,X<Xa ",
"y y uXK.L.+X> S.'., #X XD.=XN.+ 9 eXwX,XNX,XG  X X2 ,XNX,X0XtXt w d uXK.[.OX> L.L.> OX+XH.#XN., < <XwX,XZX<XZ >X6X2 >XZX,XpXtXf ",
"B I } %.=.r |.,X>X8.t N.M.T / p x LXsXpX Xs f.e.6Xe.s |.0XtXrXx i I T &.N.0 |.2X>X2.t N.N.T I e x JXrXsX#Xs e.w.8Xe.s I.iXtXsXK ",
"* e 9 O u $X>X7X7Xq.@Xp 9 + p ; = / 0 a t Y.>X3Xf.,X#Xt f a k * & i : O i $X|.7Xl.P.Y.q , + p * . n.t s y }.5Xl.h.,X@Xy g d k % ",
"6 L [ [ x m.<X3X5X<XC.l b.h B.6 = % + O @ xX2Xd.j.2X%X7   X @ * ; ^ ] ..q R.|.6XoXyXR.j [ z ! p = & + O @ xX5Xd.z.5X*X7 X X   8 ",
"m.rXU.tXUXd 0.2Xf.P.z $XeXJXrX~ % I M.&.T r i.4Xf.s.r P =.M.I % ! PXy.tXUXh |. X|.K.z rXtXeXPXL % ^ Z.%.T r q.5Xg.q.r P %.=.H & ",
"b pX-.pXvXcXA P.H.A P.ZXDX| W...  N.`.#.{.]., xX;Xr *XD.J.[.T c z eXP.qXZXcXd I.I.a ,XFXqXP.I.[   M.[.{ [.[., zX*X1 *XD.;.J.N.@ ",
"E.E.AX2Xz.jXqX_ f qXSXj.j.pXtXn : Z.#.1.$.].D # , Y [.{ `.#.W & b.U.pX9Xz.NXyX] d pXBXd.9XwXtXz : M.;.<.$.XXD , w D OX$.J.+.M.7 ",
"z LXiX8XFXh.x.7XNX7.x.VXz.cXUXk + W ].@.oXf.`.$.>.i.2.+XE }.I . v UX>XhXVXc.7X9XqXh.d.VXk.DXLXx o T }.O.oX|.`.$.*.1.6.6XF F.I $ ",
"x j  XcX5Xk.VXc.h.VXh.x.4XpXK  .#Xy *XOX<.s.s.>.$.`.oXs.S.&Xw A./ q yX>XhXz.NXl.x.hXv.c.3XpXK n.%Xe %XXX<.s.`.,.>.i..X`./.&Xw N.",
"K.T ~ rX-.GXd.z.z.g.NX4XaXK A s.' $.1 Y 5.i.i.].~.(..XXXP # %.;.F.} L  Xe.NX5Xs.oX5Xx.BXpXd } J.` @.1 E i.6.p.].^.]._.XXW - E *.",
"yXV.I J aX9.lXnXnX5X8XHXk L.3.4 4 9.XX, >.1.!.bXOX,.D.E e Z.a.6XyXM.~ L AXw.oXnXnX5XNXfXK L.=.2 4 9.].7 ,.1.4.bXXXZ.4.W B Z.5.zX",
"+XD.^ L vXqX2XnXnX5Xg.0Xz F.-.3 m ' _.M D 6.(.bX:X{.4.W M ( 5.gXxXM.n.J IXj.gXmXnXgXl.qXz K.=.m m ' /.M D ,.].:X:X/.(.~.e A.4.gX",
"D.K i uX<XSXg.5Xz.d.BXe.aXg #.t.X.9., E 6.oXXX%XXX_.E 4.W 7 +.*.M.T H rXr.FX2XoX-Xg.NXj.pXK  .0.X.>., Y >._.^.Z./.^._.*X( e *.5.",
"L z eXcXkXf.BXh.l.NXz.8XgXP.K V.S.w '._.i.2X!.,.^.XXq.i./.).- Z.^ k <XcXhXd.jXj.8XjXx.c.BXe.L m.}.r ].{.a.6Xi.E ^.,.a.D.%X&X7 T ",
"j JXcX4XBXjXj.qX1X1XhXNXj.DXLXz , N.[.;.oXi.*.Y P ~.6.+XE }.( 8 J KXZX3XFX3Xr.pXwX4Xz.VXd.GXJXx & ( }.*.6Xi.E P S D.[.gXE F.) e ",
"..W.0X6X5XgXpXK g vX2X5X8XHX8...O } #.1.#.XXW e - W %XE K.#.&.  [ I.ZX,Xl.8XvXk K uXqXj.NXqXI...O U #.1.$.%X( M M N.].Y _.J.%.  ",
"b AXH.<XcX XC [ } g yXcXvXy.pXn X M.OX+.}.).# Z.N.# %XA.D.[.D.c z UX8.fXcXyXt b.L K  XDXqXt.tX[ O D.yX#.@X/.# D.P # %XF.+.[.=.# ",
"..rXtXU.PXJ  .2.{ { x KXQ.rXrXC.o T F.M.A.e *.`.2.*.e W &.%.T o b.rXI.Q.LXL K }.%.Y L KXeXQ.KXC.o I F.&.B.w +.9.6.>.w W M.3.J + ",
"q m.z b.l x :.-.| }./ u b.[ ! 8 & % +   7 A.#.gX2X#.W 8 + O & % 8 m.n b.j l V.#.#.#Xx j b. .~ 6 & & O X w A.*.kX|.<.A.+ :   o 8 ",
"7 - 0 + 6 B.:.-.-.| / l & 7 8 * . ! 9 s i n.:.0X6X3.N.9 g d z & 6 8 7 , p ! J.-.X.| / i : , e * % J 9 g y ^ 0.6X6X0.N.0 d s l % ",
"J H T =.G.e :.:.:.K.8 A.N.W I V J JXeXiX#X< :.J.q.Y 0 eXiXwXuXl i I Y B.G.q V.#.0.L.8 A.N.T H y i LXiXiX#Xs :.;.0.{ 0 eXiX<XaXz ",
"+ M.rX=.].;X7 T ^ w %X@XL.#XJ , s wXwX,XNX>X0 %.U < oXqXqX0XI.g @ D.$XM./.*Xe L I 7 }.'.L.#XY 9 a aXwX,XHX>X, M.Y < >XkXwXfX<Xg ",
"r } } K.E *X( I B F.;XD L.V.&.9 a W.,XNXj.NX X, Y K.NX9Xk.1XaXa q n.} K.E *XN.I V F.;XD K.:.T : f <Xr.dXx.jX|.d Y K.NXx.k.,XaX9 ",
"i B.S.1.*X*X^.>.4.D. X[.#.[.Y.u j  XHXc.MXh.8X-.>XSXd.9XdXGXT.q i N.S.D.*X+XS.,.D.p.[.|.#.[.F.u q I.HXk.x.k.NX` 2XSXw.9XdXHXT.q ",
"x k *XOX3.vX:XW p.,.zX6XOXS.d Y.Y.s ,X1Xc.9XjX2XkX4X7XhXqXP.t L L y *X*X5.xXXXp.p.E yX*XOX~.z $XY.< ,X9Xd.9XSXf.cX4Xx.hXqXW.d L ",
"_ 8.7 A.~.E (.-X^.^.`..XM.9 6XpXcXwXf q.BXkXoX<.O.oX2XcX X9  .:._ :.9 A.D.E ^.:X(.(._.XXN.9 <X<XGX<X< 0.BX8X|.q.@.oX,XkX X0  .V.",
"3 | L i _.,.(.R R XXi.4.H #X0XqXqXiXeXC 2XhX6.Z C J.f.t.> T ] Z 3 | n.q ^.p.^.R R XXp.6.H #XiXfXW.fXyXs 4XNX1.C D J.s.t.: T ] f ",
"3 0.k i ^.^.:XR R XX>.,.P #XpXx.wX0X#X< 7.j.a.C D ;.kXcXt T } 3 3 0.d B !.,.:XS N -Xp.>.P T.pXqXqXiXyX< X.j.a.C C @.2XcXC n. .2 ",
" . .w F.!._..Xp.(.-X$.6.&.9 eXZX0X<Xf q.jXjX2X2.0.oX4XZXK.9 H. .| V.y &._.-X,.XXXX(.>..X&.t vXwXiX Xf q.NXhX2X2.2.|.hXDX X0 L. .",
"L q *XOXyXzX>.a.p.-X+X+XzX}.t $XY.d ,XdXx.k.v.hX7XBXx.w.9X X9 ! L u @X[.+X6X>.i..XmX+X`.xXOX0 $X#Xs ,X9Xk.x.7XhXl.BXx.j.qX<X9 ! ",
"* =X'.F vX+X.X!.Q .X|.+X#.%Xn.q q T.fXc.CXh.jXjXX.hXh.dXc.ZX#X6 * Y.V.E yX2..Xp.^.+X<X<XF [.C.u q I.NXc.CXh.NXkXX.8Xh.MXc.ZX#X5 ",
"k T :. X@.+X*Xd H D.+XQ :.C.M.9 A aX1XCXc.7Xs.Z s q.NXx.dXu.tXt y T V.K.$.;XD.P P D.mX#.:.V.M.: K aX1XNXh.k.e.Z G P.BXx.dX,XtXa ",
"y M #XL._.OX, D.'., *X%XV.Y.( 7 9 W.wX,XNX1XZ  X+X2 1XBXu.qXsXs 8 y rXV.{.*X> L.F.s OX`.P.$XY 7 > <X1X,XNX1XZ  XyX2 1XNXu.0XpXh ",
"i I M.Y C.C 0.qX,X0.d B.W I J 8 l KXeX0XI.s `.r.5X|.s I.iXtXrXJ e I W %.N.q |.6XqX-.d N.P Y ( ; H KXtXtX Xa e.q.6X|.s P.iXwXrXx ",
"; i w r i @XqXd.x.t.F.p y - V p . ! a a t }.<X3Xw.>XL.< g g u * * V e 7 i #X|.k.j.r.@Xy y 7 p 6 = b.a a t }.>X3Xw.>X#X0 _ a u * "
};
