/* XPM */
static char *_38eba4e580c43d6ad1049698a2ecc2e[] = {
/* columns rows colors chars-per-pixel */
"64 64 110 2 ",
"   c #050503",
".  c #090A07",
"X  c #0D0D0C",
"o  c #0F110E",
"O  c #11110E",
"+  c #0E1010",
"@  c #141513",
"#  c #161816",
"$  c #191916",
"%  c #171A19",
"&  c #1B1C1A",
"*  c #1E201E",
"=  c #21211E",
"-  c #1E2221",
";  c #232422",
":  c #282726",
">  c #262824",
",  c #292A26",
"<  c #272A29",
"1  c #2C2D2A",
"2  c #2E302D",
"3  c #31322E",
"4  c #343532",
"5  c #383736",
"6  c #363834",
"7  c #393A36",
"8  c #373938",
"9  c #3C3D3A",
"0  c #3F403C",
"q  c #41433E",
"w  c #3F4340",
"e  c #444641",
"r  c #474844",
"t  c #4A4B46",
"y  c #474948",
"u  c #4D4E49",
"i  c #4F504B",
"p  c #52534D",
"a  c #555651",
"s  c #575852",
"d  c #5A5B55",
"f  c #5D5E59",
"g  c #5F605A",
"h  c #62625D",
"j  c #5F6260",
"k  c #656661",
"l  c #676863",
"z  c #696A64",
"x  c #6D6E69",
"c  c #6F706A",
"v  c #72736D",
"b  c #757571",
"n  c #777873",
"m  c #7A7B75",
"M  c #7D7D79",
"N  c #7F807A",
"B  c #82827D",
"V  c #858681",
"C  c #878882",
"Z  c #8A8B85",
"A  c #8D8E8A",
"S  c #908F8B",
"D  c #8F908B",
"F  c #92938D",
"G  c #8F8F90",
"H  c #8F9190",
"J  c #969691",
"K  c #979892",
"L  c #9A9A95",
"P  c #9D9E99",
"I  c #A09F9A",
"U  c #9FA09A",
"Y  c #A3A39E",
"T  c #A6A6A2",
"R  c #A8A7A3",
"E  c #A7A8A2",
"W  c #AAAAA5",
"Q  c #ADADA9",
"!  c #B0AFAB",
"~  c #AFB0AB",
"^  c #B3B2AD",
"/  c #B6B5B1",
"(  c #B8B7B3",
")  c #BBBAB5",
"_  c #BEBDB9",
"`  c #C0BFBB",
"'  c #C3C2BE",
"]  c #C6C6C2",
"[  c #C8C7C3",
"{  c #CACAC5",
"}  c #CECDC9",
"|  c #D0CFCB",
" . c #D2D2CD",
".. c #D6D5D2",
"X. c #D8D7D3",
"o. c #DAD9D5",
"O. c #DDDCD9",
"+. c #E0DFDB",
"@. c #E3E2DE",
"#. c #E6E5E2",
"$. c #E8E7E5",
"%. c #E9E9E5",
"&. c #EDEDEA",
"*. c #F0EEEF",
"=. c #F1F1EE",
"-. c #F5F4F3",
";. c #F8F7F6",
":. c #F9FAF6",
">. c #F9F7F8",
",. c #FCFCFC",
/* pixels */
"p p a d u s a a p p p r u u y y w w w w w w w y a i d a w w 2 2 2 2 w j j s f s u p a p s p u i a s f d f f j k f d d f f k k f ",
"r q q e t r q t r u 9 7 7 q 8 6 w 0 0 2 0 0 8 w y y 4 - % @ % % & % - 2 w y 2 8 w y y t y 0 t u u r a u a d a s s s a a u a a a ",
"r r e u p t q u i r e e 0 0 8 4 w 0 8 w w w w a 0 * % % - - * - - - - - 8 y 8 4 2 r i i p u i p p u a a s s s a a j d s i p u u ",
"u u u u p p p p i e e q w 0 6 0 0 w w 0 0 w w < @ * % % * * % % - - - 2 w w p 8 > * r p t u t i a a r u a a a a a p a i a d a u ",
"u p p r u p u t w y 0 0 0 6 0 0 6 0 0 0 y 0 % @ % % % % % * % * % - - < w a j 8 < - 2 s a i p a s a u a s u u a u a u i f f j d ",
"u p p p u s p u u u 0 w w 0 0 0 0 0 8 w 8 % # % % * * % % % * * < - < 8 8 w 8 8 4 < - i d d p d s u u a s d u a i a i d d s d d ",
"u i i i u p u p y y w 0 w w 0 w w 0 0 w * + % * % * * % * % % @ + % < - - - < < 1 6 f p e d p s s s a s a a u a a p f d s g s f ",
"r p p p u p p r y 0 w w 0 0 w w w w w 8 @ % # # % % % % % * 0 n G P G b G / _ o.| X.=.B & q g d s s u u a u d p f i p s d d g g ",
"r u u i u u u i y e w 9 0 0 w 0 w w i < % % % # & # * y v Z } ;.>.,.,.,.,.,.,.,.,.,.,.=.a % s f a p q p i p i p i a d d f a d f ",
"t i u u t t u r r r 0 9 8 0 0 0 0 y w * % # @ * # # 0 N Q { X.#.*.-.;.>.>.>.,.,.,.,.,.,.%.1 r z d a d p p p s p i s f d a f a s ",
"q i i u t r r 0 0 w 0 w 0 8 8 w 0 0 0 * # @ * @ # > i B / | O.&.-.;.,.>.>.,.,.,.>.,.,.-.,.W , c f f h h d p i p p a a d p h f d ",
"u i u 0 t 0 r 0 r 0 e 9 9 w w 9 0 0 0 # # # @ @ # ; y c U { o.&.>.>.,.,.,.,.>.,.,.,.,.,.,.=.e h h z h d f f a s s p t d g h a p ",
"t t p 0 r 0 r r 0 0 0 9 6 8 9 9 6 q 0 # # # @ @ # = 7 l F ' +.@.=.-.:.,.,.,.,.,.,.>.,.>.>.:.p p h d g a s h h d a d p a h h d a ",
"q i u t 0 t q r 7 0 7 0 9 4 9 0 q q 3 o & # # # & , 0 s A ' +.O...O.&.:.,.,.,.,.,.,.,.,.:.-.i q z s f s d g h d d d d a d h d p ",
"t t t t 0 r t q 0 0 0 6 0 7 e 0 q u 2 @ * @ # & = < 2 9 s m B h d j K ~ ' ] ] o.#.&.,.,.,.:.f < h s d f g p h h d t p f a a d a ",
"q q t q q r 0 q r r 0 0 7 r e e t u 1 o * @ @ * = ; - & = 1 q 9 * % - 8 N J y 6 6 9 c K ..,.k 6 z d d f a a g h a p p d d p g d ",
"q q q u q 0 0 q q q q q q q q q q h 3 @ $ $ $ = = = $ $ : = q p > = & 6 O.,.i ; 3 g B m B ^ h q l g d g g h g g d p s q z h p h ",
"t q q t t q q t q q q q q q q d 3 3 = $ $ $ $ = = $ = = $ = . t a O * ,  .,.b @ > 3 u B F B h u h g h g h h s s g q p s s d g d ",
"q q i t q i q q q p q q q q p q $ = = $ @ $ = = = = $ O $ 3 7 N U x 4 3 M ,.| a q = , O 0 D c q g z h g g d d p s s s q s h h h ",
"t i s u 0 0 q u q p q p q q q q = $ = = $ $ = = = 1 3 3 3 4 s h n x a 0 u O.,.{ F m L m 7 ^ B J B q d s d d s s p q p p d q d l ",
"q s s q q q q i q q q q q q q q = $ $ = = $ = = = 7 s m N B m v h q 0 3 h #.>.$.' ' %.&.X.@. .@.g a s s a g s p a s g d a s d h ",
"p p q q 0 q q q q q q q q q q p = = $ $ $ = $ = = 3 p N J R R J m 7 0 6 P >.>.>.:.*.-.;.:.:.:.F q d s g a d s g s q p s q l g s ",
"p q q q 0 q q 0 q p p q q q q d = $ O = $ = = = = : q l B I ! R m q 1 0 x *.,.>.>.,.-.;.:.:.:.B a h q q s d g d p q s q q g d g ",
"s i q q 0 q 0 0 q q q q q q q q 3 $ O = = $ = $ = : 3 s v B J S c 6 = = 1 V ..&.*.>.>.-.:.-.@.B q h d g s s p d p s p s h s s p ",
"i q i q q q q q q 0 q 3 q q q q q $ & O $ $ $ $ = 1 9 q h n N m s = $ $ = & 1 q +.:.:.:.-.:.Y c s g s s s s g p s s p s s s s s ",
"p q q q q 0 q q q 0 q q 7 q q q q 3 $ & $ = = $ = , 9 q d l z l t $ & $ $ , = z =.%.=.-.-.-.=.B p g s d s p g s p p s d d g d d ",
"q q q q q q q 0 q q q q q q 7 q q q 1 @ $ $ $ $ = : 5 q q f g f q & $ $ = 1 n :.=.%.&.%.-.:.X.h g d s p p g s s s s q d s s g s ",
"q q i q 0 0 0 0 q q 3 q 3 q q q q 9 q = $ $ $ $ = : , 9 q p d d q = @ $ $ . q  .:.&.&.=.=.:.F q g s t t s s p s p d g s d d g g ",
"q q q q q q q 0 q q q 6 q q q q q 9 q q q = $ $ $ = : 7 9 q 7 1 = & $ : p s h n B =.=.=.%.=.B t s s u p p p p s d s s s s d s g ",
"q q q q q q q q q q q 6 q 3 q q 7 q q q q = $ $ & & : : 3 q 4 = $ $ O . O = = 7 q X.=.%.=.E u p p p p t p p p s p s s p s s d g ",
"q q q q q q q q q q 3 3 3 3 q q q q q 9 q = O $ $ $ = = : 4 : 1 = = 7 f u B F u g ' %.%.%.g t p p u q p q g p i p g s s p p d h ",
"q q q q q i q q q q q 3 q q q 3 9 q 7 7 q = O $ @ @ @ $ = : 7 5 ; = = h m K W } ' ' +.%.' q u p t p t t p p p p p s p p p s d d ",
"q q q q q q e t q 7 9 9 q 7 7 3 3 3 5 5 9 & $ $ $ $ $ $ & : 1 5 ; $ O     . e R / ( ' | Z q t a p i p u q s d g d q h g a d d g ",
"q q q q 9 5 e u q q 7 q 7 7 7 7 3 3 3 5 9 $ $ $ @ $ $ @ $ : : 9 t 9 0 r d c L / ` ` ! ! a t t s u q p q d g s q g g q a p s p g ",
"9 q q 5 q 9 e q q 9 q q q 9 9 3 5 4 3 9 5 @ $ @ $ $ @ $ @ = : t v B R o.*.;.*.+.| / Y Z 0 t i p p q i q f q s f q d s a s f s g ",
"9 q e e q 9 e 9 q 7 3 9 3 7 7 5 5 3 5 = X O @ $ $ $ $ $ $ $ & 5 p s v I ' o.X.| ' Z K v 7 q t q q q i q q q q q q d q s p q d d ",
"7 e e q q q 9 9 7 5 3 7 7 3 4 5 5 5 5 X @ : @ X @ $ $ $ @ & $ = = = , 3 t m Z J B v F u q q q q q a q q s q q a p p p s p s s f ",
"q 9 q q 9 q 9 5 7 9 7 7 7 3 3 7 5 5 3 X X = 9 3 @ X @ @ $ & $ $ $ $ $ $ $ : 5 q h F h 9 q q q q q q q q q p s q q s p f s d f s ",
"q q 9 q q 9 q 5 9 7 5 7 7 3 3 3 5 5 1 O @ X @ 5 p 9 : @ @ $ $ @ $ $ & = & & : r h z q q 9 q q q i q q q q q a a s s q p p d f g ",
"q q 9 9 q q 4 4 7 4 3 5 7 4 3 3 5 q : X O O O X @ 1 5 5 : & $ $ @ $ $ & & & 2 , 7 F q q q q q q q q q p i q q p q d s p g f p d ",
"q q 9 q 3 q 7 7 3 4 5 4 3 7 3 7 5 9 & X O O @ @ O X X @ & & & & @ $ $ X O = @ = b I q q q q q q q q p q p q p p s s s i s s g g ",
"q q 9 7 7 7 7 7 3 4 3 7 3 4 7 9 9 5 @ @ O O @ @ + @ O O O O O @ @ $ X 7 t 5 q c b I p 9 q q q q q q q p q q p q p p q d s s g l ",
"7 9 q 9 q q 9 7 5 5 5 5 q q 3 3 7 1 . O O O O O + + @ @ O @ @ O $ $ = 9 t u q , 1 R h 7 q 9 q r p q q q q p a s p p s d h g d d ",
"3 7 q q 7 7 7 9 q 9 q 5 q 9 9 3 q : X @ @ O O @ @ @ X @ O @ O @ O O $ O = = 3 x t x B 3 7 4 q q q q q p q q q s p s p s s g g h ",
"q 7 7 q 7 7 7 7 9 9 5 q t 9 9 9 5 @ O @ O O O O @ @ X @ $ $ $ & @ $ ; O = g v Z I d J 7 q u 7 9 q q q p q q d p p p p s s d d d ",
"9 7 5 9 7 9 7 7 9 9 e q 5 9 9 q = O @ @ @ O O $ @ @ @ @ @ O @ & $ @ 1 O p s i t Z f J 5 q b q q q q q q q q q p p s p q i h d f ",
"3 9 7 3 9 9 7 7 9 9 5 9 3 : = = $ @ @ @ $ @ @ $ + + $ $ O @ O O @ = 3 $ q s p q ! t S W p : 1 q d c m m v h p q q g s p p p d g ",
"3 9 7 7 3 7 7 7 9 e q q u 5 3 + $ @ & $ $ $ $ $ + $ $ @ O @ O O O O 4 @ p z , f Q N l ` ` W l 5 , 3 q q q q s z d p s d d s d s ",
"3 7 3 9 7 4 7 5 7 7 3 @ f h # $ % % % $ & $ $ @ + $ & & $ O & = 3 7 9 : L g = N | +.n ` ` ' ' ' B d q q q p 9 3 g v h q p z h d ",
"5 7 q 7 7 5 9 9 3 = = = = , & * - ; & % $ @ ; @ & ; : ; ; @ X = , s z 1 ` B p ' +.' c ` ' X.' ' +.' Y c p q q 3 O 1 z v s q q s ",
"7 5 e 9 9 3 7 1 = 3 3 $ @ o % < < ; : : : & $ X @ : ; : q 9 5 : $ 4 h 3 F , I %.! n ` ' X.' '  .| '  .X.X.` L B v q = 7 c I I s ",
"e q q q q 3 1 1 3 1 @ @ @ # # @ : : < 1 2 2 1 : @ X O @ & 1 r 5 3 B N = L B Y B a ` ' ' X.'  .' | ' | | {  .X. .X.X.' J c n ` ' ",
"7 e q d q q 9 3 * o # & + # + @ @ < 5 < 4 5 5 5 q : $ . . O O : d g I = n ` p g ` ` ` ` | ' X. .X.| X.X.X.X.'  .|  .+...X.| B ` ",
"d h s q 9 7 , : 0 1 O + # @ @ @ O X 5 q 5 q e 5 p f s q = . X O . . q @ = q c ! J I ` ` ' ' ' ' ' | | X.X. .X.X... . .+. .o.' I ",
"q : = : 4 q q s p i 4 O + + + X @ O @ q u p u u e p h x b a & $ s 4 v h q B W J I R ! ` ' ' ' ' X.|  . . .X.X.X.X.X. .+.+.X.| I ",
"7 f c n n n v v x z f i &   X X   . X . t f a a i p d x M J L 4 p F Y c q Y Y ` ` ` ` ! ` ` ' |  .| | X.|  .o.X.o.X.+.+.+.o.o.Y ",
"B A B N v N m N N x z h c * . O + X .   . i f k h d h n B A J B $ n ` 3 = R e v N Y ` ! ! ! ' ' { ] { ....o.+.+.+.o.@.@.+.+.@.R ",
"B K K C m n C Z N b N c b c * . # @ + + X X y x h c v c B F K P = 3 Y B .   s F B L I R R ! ` ` ' ] | | | o.O.O.X.+.@.X.o.+.$.Y ",
"A L A F m n B A B B N N N B c .   @ + @ X X X a B c c m v F Y P 7   z / J h Z F I W W ` ` ` ' | [ | | o.+.+.o.+.X.@.+.o.+.@.%.I ",
"U Y L K z c N C A B B Z Z K B g # X @ @ + & X < B m B m B F L P m O = J ` / Y ! ^ ` ` ` ` ` |  .[ { |  ...| | ] X.@.| ..+...%.` ",
"L U U A z c c m B B A A K A B c h & O @ @ @ & @ h B B B B F L F I d   z / ` ! Q ` ` ` ` / R ^ [ ! ) ` B m J  .O.Q v b 1 ` f h I ",
"K Q F D n c l v B N F U U C c z v b 1 X $ & & O & h B m v M Z V S b @ 2 ^ ( Y F S S B z k p j 9 f z v 5 5 : ..,. .: q : n Z = S ",
"k E / K N k z h m D U K K B z z x B P 9 O * * * @ 1 z v v l v Z M v 1 X V ( / b 5 ; e 5 u e x y 5 9 t q y : B G T S a 3 v R q ^ ",
"* k P n s i t 7 q n m m n z a s k x m G 4 o $ * = @ 3 h z f a z h u 1 X i Z Q t X = e 5 u 5 d b = m a q e & 5 M G m 1 $ k Z p c "
};
