/* XPM */
static char *_f637ba776aa492aa44f6eadf42d9b9a[] = {
/* columns rows colors chars-per-pixel */
"64 64 197 2 ",
"   c #000000",
".  c #080506",
"X  c #0C0609",
"o  c #0E0A0C",
"O  c #12060C",
"+  c #120A0E",
"@  c #0F100F",
"#  c #180610",
"$  c #160D12",
"%  c #1C0A13",
"&  c #141414",
"*  c #1B1115",
"=  c #1E1318",
"-  c #1C1C1C",
";  c #210A16",
":  c #240D19",
">  c #2A0D1C",
",  c #22141B",
"<  c #2A121E",
"1  c #24191E",
"2  c #2F0F20",
"3  c #330E22",
"4  c #2D1421",
"5  c #261D21",
"6  c #2C1C24",
"7  c #331324",
"8  c #3A1226",
"9  c #311D26",
"0  c #3B1428",
"q  c #341E28",
"w  c #3C1A2B",
"e  c #242323",
"r  c #2D2127",
"t  c #2E2429",
"y  c #35212A",
"u  c #39222D",
"i  c #322B2E",
"p  c #3E2531",
"a  c #352F32",
"s  c #363435",
"d  c #3B3538",
"f  c #3C3B3C",
"g  c #44142D",
"h  c #411A2E",
"j  c #4C1532",
"k  c #441E32",
"l  c #4C1B34",
"z  c #511635",
"x  c #511836",
"c  c #551C39",
"v  c #5C1B3D",
"b  c #422432",
"n  c #492236",
"m  c #432935",
"M  c #492638",
"N  c #4B2C3B",
"B  c #52223B",
"V  c #5A233F",
"C  c #54293F",
"Z  c #5F1F40",
"A  c #651D42",
"S  c #6C1E47",
"D  c #711F4A",
"F  c #5C2441",
"G  c #562C41",
"H  c #5A2B43",
"J  c #4E3541",
"K  c #483840",
"L  c #543444",
"P  c #5B3246",
"I  c #5C3549",
"U  c #543D48",
"Y  c #5C3A4B",
"T  c #652345",
"R  c #662847",
"E  c #6B2449",
"W  c #662C49",
"Q  c #6B2C4C",
"!  c #74234D",
"~  c #78224F",
"^  c #72284E",
"/  c #66354E",
"(  c #7D2452",
")  c #7B2C55",
"_  c #6D3552",
"`  c #623C50",
"'  c #6E3C56",
"]  c #753757",
"[  c #7C3C5D",
"{  c #444343",
"}  c #494547",
"|  c #4B4749",
" . c #4D4C4D",
".. c #57444D",
"X. c #525353",
"o. c #585757",
"O. c #575858",
"+. c #5C5C5C",
"@. c #684456",
"#. c #74435C",
"$. c #79405E",
"%. c #6B525E",
"&. c #7E4562",
"*. c #7E4C65",
"=. c #795366",
"-. c #755A67",
";. c #626262",
":. c #6C6C6C",
">. c #747474",
",. c #777878",
"<. c #7C7C7C",
"1. c #822556",
"2. c #8B275C",
"3. c #842858",
"4. c #852D5B",
"5. c #8C2A5D",
"6. c #84355D",
"7. c #8F2E60",
"8. c #932C62",
"9. c #982A64",
"0. c #863B61",
"q. c #8E3965",
"w. c #923465",
"e. c #923A67",
"r. c #953C6A",
"t. c #9D386D",
"y. c #AC3975",
"u. c #B33E7B",
"i. c #844565",
"p. c #8B4467",
"a. c #834A66",
"s. c #844E69",
"d. c #8B4C6C",
"f. c #93426B",
"g. c #9A426F",
"h. c #95496F",
"j. c #83546C",
"k. c #8B526F",
"l. c #815A6D",
"z. c #974971",
"x. c #9B4D75",
"c. c #945374",
"v. c #9C5778",
"b. c #955A79",
"n. c #A44575",
"m. c #A5527C",
"M. c #856474",
"N. c #896275",
"B. c #8F6479",
"V. c #94637B",
"C. c #946B7F",
"Z. c #82797D",
"A. c #7F807F",
"S. c #AF5181",
"D. c #BB5B8C",
"F. c #996881",
"G. c #9B6983",
"H. c #877B81",
"J. c #957483",
"K. c #997285",
"L. c #9C788A",
"P. c #A46785",
"I. c #A26F89",
"U. c #BA648F",
"Y. c #A5758C",
"T. c #BB6E93",
"R. c #A67D91",
"E. c #B97596",
"W. c #C5538E",
"Q. c #C3598F",
"!. c #CA6497",
"~. c #C6759E",
"^. c #D769A1",
"/. c #CF7BA4",
"(. c #DB75A8",
"). c #838484",
"_. c #878988",
"`. c #8C8C8C",
"'. c #939393",
"]. c #9A9A9A",
"[. c #9FA09F",
"{. c #BE86A1",
"}. c #9FA0A0",
"|. c #A2A2A2",
" X c #A7A8A7",
".X c #ACACAC",
"XX c #B5B5B5",
"oX c #BBBBBB",
"OX c #DD98BA",
"+X c #C3C3C3",
"@X c #CCCCCC",
"#X c #D4D4D4",
"$X c #DCDCDC",
"%X c #E3E3E3",
"&X c #ECECEC",
"*X c #F4F4F4",
"=X c #FEFEFE",
/* pixels */
"                                                                                                                                ",
"                                                                                                                                ",
"                                                                                                                                ",
"                                                                                                                                ",
"                                                                                      $ , , = , *                               ",
"                                                                                    . m 5 r 6 5 m .                             ",
"                        . o o o o o o + o o + o o .   o o + o o o o o O O o o .   . $ u  .+X+XX.q .                             ",
"                      % y 9 6 9 9 6 9 9 6 9 9 6 9 y u 9 6 9 6 9 u y 9 6 6 9 9 y u u 9 * :.=X=X>.9 .                             ",
"                    o u f ).`.`.`.`.{  .`.`.`.`.A.s 1 :.`.`.`.`.{ - A.`.:.;.`.+.= K )._.oX=X=X:.q .                             ",
"                    = 6 XX=X=X=X=X=X<.'.=X=X=X=X=X].X.=X=X=X=X=X@X} *X=X=X=X=X&Xf +X=X=X=X=X=X>.q .                             ",
"                    , r +X=X*X#X=X=X<.`.=X=X#X*X=X.X;.*X*X#X&X=X#X .&X=X%X%X=X*XX.@X=X&X#X=X=X:.9 .                             ",
"                    , r +X=X$X<.=X=X<.'.=X*X'.&X=XXXe :._.:.#X=X#X .&X=X.X|.=X*XX.@X=X#X).=X=X:.q .                             ",
"                    , r +X=X$X,.=X=X<.`.=X=X*X=X=X].d #X*X*X*X=X#X .&X=X.X|.=X*X .@X=X@X).=X=X>.q .                             ",
"                    , r +X=X$X,.*X=X<.'.=X=X*X=X=X].;.=X=X*X=X=X#X .&X=X.X].=X*XX.@X=X#X<.=X=X:.q .                             ",
"                    , r +X=X$X<.=X=X<.`.=X*X`.&X=X.X;.=X=X|.#X=X#X .&X=X.X|.=X*X .@X=X#X).=X=X:.q .                             ",
"                    , r +X=X*X#X=X=X<.'.=X*X>.&X=X.X;.=X=X$X&X=X#X .&X=X.X].=X*X .@X=X*X$X=X=X>.q .                             ",
"                    , 5 .X=X=X=X=X=X<.'.=X*X,.%X=X.XX.*X=X=X=X=X$X .*X=X.X|.=X*X .oX=X=X=X=X=X>.9 .                             ",
"                    , , f '.'.oX=X=X<.} ).<.X.&X=XXXe ,.).).A.).:.e ,.).O.X.).<.- s <.).).A.).d y .                             ",
"                    , r }.#X#X%X=X=XA., u q s &X=X*X#X+Xe y y 9 6 u u y u y 9 9 p m u u y u y u N o .                           ",
"                    , r +X=X=X=X=X*X+., m b e @X=X=X=X%Xt p b m m b p b p m p m m p p p p b m b u u m 1 , , +                   ",
"                    , 5 } +.%.+.+.O.;.:.X.+ o s ;.#X=X&X).;.+.5 t ;.:.;.:.o.5 t ;.:.:.;.:.f e :.:.f 1 r r y 9                   ",
"                    * m y y t u * _.=X=X*X@X+X+X{ oX=X=X=X=X=X:.].=X=X=X=X=X:.].=X=X=X=X=X|.oX=X=X%X+X+X.Xe 6                   ",
"                          .   = 6 .X=X=X=X=X=X=X+.XX=X*X%X=X=X`.XX=X*X%X=X=X`.XX=X=X#X@X@X`.$X=X=X=X=X=X&Xa 6                   ",
"                              * 6 ;.*X=X$X).'.`.d oX=X%X).*X=X`.XX=X&X'.*X=X'.XX=X*X.X|. X;.`.=X=XoX).'.<.e 9                   ",
"                              + m e %X=XoX<.$X$X .XX=X%X,.*X=X`.oX=X=X&X=X=X`.XX=X=X=X=X=X`. .*X=X`.].%X+Xi 6                   ",
"                                9 a %X=XoX`.=X=X+.oX=X%X,.=X=X`.XX=X=X=X*X=X`.XX=X*XoX X.XO. .=X=X`.oX=X%Xa 6                   ",
"                                6 a %X=XoX`.=X*X+.XX=X%X,.*X=X`.XX=X&X<.).). .XX=X&Xi 6 6 ,  .*X=X'.XX=X%Xa 6                   ",
"                                4 a %X=X%X#X=X=X+.oX=X$X,.*X=X`.oX=X*XoX&X*X).XX=X%Xd u * p X.=X=X@X%X=X%Xa 6                   ",
"                                6 i $X=X=X=X=X=XX.oX=X%X,.=X=X`.XX=X=X=X=X=X`.XX=X&Xd 6   y  .=X=X=X=X=X%Xa 6                   ",
"                                9 6 <.@X#X@X@X}.e '.#XXX+.@X#X:.X.@X@X@X#XoXd `.#XoXi p o r y ].@X@X@X@X).r ,                   ",
"                              6 u = @ - - & & o o - - - & - o @ o - @ @ @ .   & - - & r y y u r t y y t q y .                   ",
"                            + y +.+X@X+X@XXXs :.@X+X+..X@X'.s XX@XXX+. . .e { oX@X+X@XoX .y $ = 1 , , 1 *                       ",
"                            = 6 oX=X=X=X=X=XZ.`.=X=X,.%X=XoX'.=X=X=X=X=X=X>.'.=X=X=X=X=X X6 $                                   ",
"                            = r [.$X@X.X=X=X)._.=X*X>.%X=XXX).=X=X*X$X$X$X;.].=X*X.X*X=X X6 $                                   ",
"                            , , d _.`. X=X=X).).=X*X,.%X=XoXe @X=X$X;.`.'.{ ].=X*X:.&X=X X5 $                                   ",
"                            * 6 }.=X=X=X=X=X).`.=X*X,.%X=XXX& @X=X#X,.=X=X,.].=X*X>.&X=X.X6 $                                   ",
"                            = r oX=X*X%X=X=X).).=X=X,.%X=XoX& +X=X#X,.=X=X>.'.=X*X>.%X#X_.6 $                                   ",
"                            = 6 oX=X%X'.*X=X).`.=X*X`.%X=XXX& @X=X$X`.=X=X>.].=X*X).<.N.` 9 *                                   ",
"                            , r .X].Z. X=X=X).`.=X=X*X*X=XoX& @X=X=X*X=X=X>.].=X=XXXM.*.g.M +                                   ",
"                            * y } L.I.=.@X=X<.+.&X=X*X*X*X_.. ].*X*X*X*X%X} :.*X&XH.G.: e.=                                     ",
"                              < -.%.L a.i  .t * N  .} } { r p r } |  .} d 6 9 f f M.Y 0 q..                                     ",
"                            . Y J.r v.6 + r y u q 6 r r 9 6 $ 6 9 6 6 y q = 9 p Y G.X F S.d.l     X                             ",
"                            r '.r d.L           X 5 *             , @.b.i.p B.c.&.6   : 2 w r.F j.x.h                           ",
"                          o J.K / $..   = 1   r C.V.v.b         J I.@.y 0.U.a.3 #   : t.n.c Z !.I h 5..                         ",
"                  o       -.-.u T.y   U L.m.#.L.N , h f..     Y G.6 l g.^./.^.u.4 # V E j.N ( T O > 5..                         ",
"                ..R.`   N K., E.{.v.=.K., k (.U B ] q g.X   6 K.6 ) D.~.*.w W.F l 0 4.f.P.2 x 3 A h (                           ",
"              X K.C c.y '.w a.OXy m.E.9 _ D.z.< _ < f.Q._   =.I T (.P.p ; # R 4 y.7 4.q.e.. % y.E v A                           ",
"              . C.y v.R.U V /.V.w !.b W p.Y.N . < g.n.w g.: V.4 e.' < ) w.X % 7.Q.: ; A 8.> 2.Q.l ( 0                           ",
"                V.u P.j.w x.Y.m p.m.7 !.I.l.O h n.6.> 6.R X c.h : l w.0.x.> ) ^ i.R A 9.3.8.v b.7 2.;                           ",
"                M.m W < h.I C.6 !.k.< _ u 8 7 7 q w q.Q .   b r.w.) 2 . Q w.S   % ! A X   . = c.7 2..                           ",
"                l.m . [ / 6 V.B z.c.Q F 6.g.g.6.q.q.h         X O     X # 4 4 q m G P / ' ] c.&.g u.[ ] _ G k , X               ",
"                Y d.[ i.. o a.n.w * W W w . O < ; .   O = q m I ' *.d.c.c.d.d.0.] _ W G F M k % # h k l V W ) e.q.B X           ",
"                o G H O .   . O         o 5 p L @.s.c.c.c.d.$./ G k w 3 3 3 0 j z Z A S ~ ( 1.% D 2.1.( D A j 3 7 1.~ .         ",
"                            . 6 J @.j.c.c.c.&.' G k 7 7 3 h z A ! 1.2.8.2.2.1.D S Z z g 0 l S.3 9.3 3 3 g c D 2.2.: 2.8         ",
"                            ..G.#.P b q 7 0 j Z ^ 4.8.5.5.( E c g 3 % # X .               y s.g (             . [ F D j         ",
"                            j.) c ^ 4.w.7.6.^ F g 4 % o .                                 ` / A v               M t.9.;         ",
"                            , Q E l 4 % o                                                 k.k 1.3               . > ;           ",
"                                                                                        , G.> 8.o                               ",
"                                                                                        s._ g (                                 ",
"                                                                                      o c.% ! j                                 ",
"                                                                                        0.2.8.O                                 ",
"                                                                                        # z :                                   ",
"                                                                                                                                ",
"                                                                                                                                "
};
