/* XPM */
static char *_7f030b40cb245ecce85bf59576e2a5d[] = {
/* columns rows colors chars-per-pixel */
"64 64 147 2 ",
"   c #010304",
".  c #050807",
"X  c #050608",
"o  c #040A0B",
"O  c #0A0C0D",
"+  c #0E100F",
"@  c #0D0E11",
"#  c #110F10",
"$  c #0D1214",
"%  c #0E1819",
"&  c #121414",
"*  c #14161A",
"=  c #15191B",
"-  c #1B1C1C",
";  c #201E1F",
":  c #1C201F",
">  c #161E20",
",  c #1C1E21",
"<  c #162021",
"1  c #1D2223",
"2  c #1E2827",
"3  c #1F2629",
"4  c #1F2929",
"5  c #232425",
"6  c #262827",
"7  c #232629",
"8  c #252A2C",
"9  c #2A2C2C",
"0  c #26302F",
"q  c #2D312F",
"w  c #272C30",
"e  c #2B2E31",
"r  c #263031",
"t  c #2C3233",
"y  c #2E3837",
"u  c #2F3739",
"i  c #2F3939",
"p  c #323435",
"a  c #343837",
"s  c #383836",
"d  c #33363A",
"f  c #343B3C",
"g  c #3A3C3D",
"h  c #36403F",
"j  c #3E403F",
"k  c #40403E",
"l  c #363F41",
"z  c #3A3E41",
"x  c #413F40",
"c  c #374140",
"v  c #3C4244",
"b  c #3E4847",
"n  c #3F4548",
"m  c #3F4948",
"M  c #424545",
"N  c #454847",
"B  c #424649",
"V  c #444A4C",
"C  c #4A4C4C",
"Z  c #47504F",
"A  c #464F51",
"S  c #4B4F51",
"D  c #4D5254",
"F  c #4E585A",
"G  c #525354",
"H  c #535659",
"J  c #545A5B",
"K  c #5A5C5D",
"L  c #5C605F",
"P  c #575C60",
"I  c #5B5E61",
"U  c #5C6162",
"Y  c #5F6867",
"T  c #636465",
"R  c #636669",
"E  c #67696B",
"W  c #6A6C6C",
"Q  c #70706E",
"!  c #696C71",
"~  c #6D7272",
"^  c #6D7578",
"/  c #727374",
"(  c #71767A",
")  c #747A7B",
"_  c #7B7B7C",
"`  c #7C7F81",
"'  c #7D8283",
"]  c #7F8887",
"[  c #828485",
"{  c #828886",
"}  c #818588",
"|  c #858A8C",
" . c #8A8C8C",
".. c #868E90",
"X. c #8B8F90",
"o. c #8C9093",
"O. c #929494",
"+. c #989896",
"@. c #959698",
"#. c #969999",
"$. c #9A9B9B",
"%. c #9DA5A7",
"&. c #A3A5A5",
"*. c #A1A6A9",
"=. c #A6AAAB",
"-. c #AAACAB",
";. c #ADAEB0",
":. c #ADB2B3",
">. c #B2B4B5",
",. c #B2B6B9",
"<. c #B5B9BB",
"1. c #BABBBB",
"2. c #BEC6C5",
"3. c #C2C6C5",
"4. c #C4C8C7",
"5. c #C5C7C8",
"6. c #C1CAC9",
"7. c #CCCDCD",
"8. c #D0CECF",
"9. c #D1D1CF",
"0. c #CECFD1",
"q. c #CDD1D4",
"w. c #D3D5D4",
"e. c #D8D6D7",
"r. c #D3D7D9",
"t. c #D9D7D8",
"y. c #D0D9D8",
"u. c #DCDDDD",
"i. c #DEDFE1",
"p. c #E1DFE0",
"a. c #DDE2E3",
"s. c #E4E4E4",
"d. c #E9E7E8",
"f. c #E6EBEE",
"g. c #EBECEC",
"h. c #F2EEEF",
"j. c #EDEFF1",
"k. c #F1EFF0",
"l. c #EDF2F3",
"z. c #F5F5F5",
"x. c #F9F6F7",
"c. c #F5F8F7",
"v. c #F9FAF7",
"b. c #F5F6F9",
"n. c #F9F7F8",
"m. c #F5FAFB",
"M. c #FEFEFE",
/* pixels */
"M.M.M.M.M.M.M.M.M.M.M.M.M.M.M.M.M.M.M.M.M.M.M.M.M.M.M.x.M.M.x.M.M.M.M.M.M.M.M.M.M.M.M.M.M.M.M.M.M.M.M.M.M.M.M.M.M.M.M.M.M.M.M.M.",
"M.M.M.M.M.M.M.M.M.M.M.M.M.M.M.M.M.M.x.M.x.k.M.k.M.M.M.M.M.M.x.M.M.M.M.M.M.M.M.M.M.M.M.M.M.M.M.M.M.M.M.M.M.M.M.M.M.M.M.M.M.M.M.M.",
"M.M.M.M.M.M.M.M.M.M.M.M.M.M.M.M.M.n.x.x.x.M.M.M.n.M.M.M.M.M.M.x.M.M.M.M.M.M.M.M.M.M.M.M.M.M.M.M.M.M.M.M.M.M.M.M.M.M.M.M.M.M.M.M.",
"M.M.M.M.M.M.M.M.M.M.M.M.M.M.M.M.M.n.M.d.h.k.t.M.M.M.x.n.M.M.M.M.M.M.M.M.M.M.M.M.M.M.M.M.M.M.M.M.M.M.M.M.M.M.M.M.M.M.M.M.M.M.M.M.",
"M.M.M.M.M.M.M.M.M.M.M.M.M.M.M.M.x.x.&.x ; # C p.M.M.z.M.M.x.M.M.M.M.M.M.M.M.M.M.M.M.M.M.M.M.M.M.M.M.M.M.M.M.M.M.M.M.M.M.M.M.M.M.",
"M.M.M.M.M.M.M.M.M.M.M.M.M.M.M.M.v.e.5 X q # ; ; 8.M.M.M.M.k.M.M.M.M.M.M.M.M.M.M.M.M.M.M.M.M.M.M.M.M.M.M.M.M.M.M.M.M.M.M.M.M.M.M.",
"M.M.M.M.M.M.M.M.M.M.M.M.M.M.M.M.e.+.s 6 k k k - Q g.M.M.M.M.M.M.M.M.M.M.M.M.M.M.M.M.M.M.M.M.M.M.M.M.M.M.M.M.M.M.M.M.M.M.M.M.M.M.",
"M.M.M.M.M.M.M.M.M.M.M.M.M.M.M.M.$.p s 9 k  .L ; - e.M.z.M.M.M.x.M.M.M.M.M.M.M.M.M.M.M.M.M.M.M.M.M.M.M.M.M.M.M.M.M.M.M.M.M.M.M.M.",
"M.M.M.M.M.M.M.M.M.M.M.M.M.M.M.M.E - s N C +.s G s C &.7.g.9.z.M.M.n.z.M.n.M.z.M.M.M.M.M.M.M.M.M.M.M.M.M.M.M.M.M.M.M.M.M.M.M.M.M.",
"M.M.M.M.M.M.M.M.M.M.M.M.M.M.M.M.&.5 s 9 ; ; 6 C 5 6 k s q s Q +.u.z.M.M.M.M.M.z.M.M.M.M.M.M.M.M.M.M.M.M.M.M.M.M.M.M.M.M.M.M.M.M.",
"M.M.M.M.M.M.M.M.M.M.M.M.M.M.M.M.z.: 9 ; p q O p - ; q s 6 9 q 9 6 W 7.M.n.M.M.n.M.M.M.M.M.M.M.M.M.M.M.M.M.M.M.M.M.M.M.M.M.M.M.M.",
"M.M.M.M.M.M.M.M.M.M.M.M.M.M.M.M.M._   - 5 + ; + 5 ; - .   O ; - & 5 T M.M.M.z.M.M.M.M.M.M.M.M.M.M.M.M.M.M.M.M.M.M.M.M.M.M.M.M.M.",
"M.M.M.M.M.M.M.M.M.M.M.M.M.M.M.M.z.z. .q & + : : . ; C q : . 9 q [ s # 8.x.M.z.M.M.M.M.M.M.M.M.M.M.M.M.M.M.M.M.M.M.M.M.M.M.M.M.M.",
"M.M.M.M.M.M.M.M.M.M.M.M.M.M.M.M.M.M.z.a q N + & . + g 5 5 . q j _ k   O.M.z.M.M.M.M.M.M.M.M.M.M.M.M.M.M.M.M.M.M.M.M.M.M.M.M.M.M.",
"M.M.M.M.M.M.M.M.M.M.M.M.M.M.M.M.M.a.L h G : : + +   + : 9 & 5 8 K T 6  .M.z.M.n.M.M.M.M.M.M.M.M.M.M.M.M.M.M.M.M.M.M.M.M.M.M.M.M.",
"M.M.M.M.M.M.M.M.M.M.M.M.M.M.M.M.M.=.: &.$.6 : j 9 . . ; = O $ 5 _ O.* Q n.M.M.M.M.M.M.M.M.M.M.M.M.M.M.M.M.M.M.M.M.M.M.M.M.M.M.M.",
"M.M.M.M.M.M.M.M.M.M.M.M.M.M.M.M.M.:.  ;._ - g 9 # *   * O O   1 F V , H j.M.m.M.M.M.M.M.M.M.M.M.M.M.M.M.M.M.M.M.M.M.M.M.M.M.M.M.",
"M.M.M.M.M.M.M.M.M.M.M.M.M.M.M.M.M.u.6 G C e C 7 6 e X   @ * X 5 P V w H f.M.M.M.M.M.M.M.M.M.M.M.M.M.M.M.M.M.M.M.M.M.M.M.M.M.M.M.",
"M.M.M.M.M.M.M.M.M.M.M.M.M.M.M.M.M.M./ = 5 e x , , g =     X X p ! V d D i.m.m.M.M.M.M.M.M.M.M.M.M.M.M.M.M.M.M.M.M.M.M.M.M.M.M.M.",
"M.M.M.M.M.M.M.M.M.M.M.M.M.M.M.M.b.M.0.B ; 7 9 7 # 5 * @     O p ` V z A q.m.M.M.M.M.M.M.M.M.M.M.M.M.M.M.M.M.M.M.M.M.M.M.M.M.M.M.",
"M.M.M.M.M.M.M.M.M.M.M.M.M.M.M.M.M.M.M.@.9 9 9 e ;     @   # * 7 ..V x z ,.m.M.m.M.M.M.M.M.M.M.M.M.M.M.M.M.M.M.M.M.M.M.M.M.M.M.M.",
"M.M.M.M.M.M.M.M.M.M.M.M.M.M.M.M.M.k.M.<.9 p z e 9 X   @   X ; z ` z z l ..M.M.M.M.M.M.M.M.M.M.M.M.M.M.M.M.M.M.M.M.M.M.M.M.M.M.M.",
"M.M.M.M.M.M.M.M.M.M.M.M.M.M.M.M.M.j.M.5.x 7 x e 5 1   O   O ; H R e l > R M.M.m.M.M.M.M.M.M.M.M.M.M.M.M.M.M.M.M.M.M.M.M.M.M.M.M.",
"M.M.M.M.M.M.M.M.M.M.M.M.M.M.M.M.M.z.M.p.I * s g ; p     - 5 - H S 3 w * A m.m.M.M.M.M.M.M.M.M.M.M.M.M.M.M.M.M.M.M.M.M.M.M.M.M.M.",
"M.M.M.M.M.M.M.M.n.M.g.M.n.M.M.M.M.b.M.M./ 7 7 ; # d ; # e S S e 7 z 7 7 w r.n.n.M.M.M.n.M.M.M.n.M.M.M.M.M.M.M.M.M.M.M.M.M.M.M.M.",
"M.M.M.M.M.M.M.M.M.M.n.M.M.M.M.M.M.M.M.b.[ p ; @ * 9 7 P  .R x d l D z l > *.M.M.m.M.M.M.M.M.M.M.M.M.M.M.M.M.M.M.M.M.M.M.M.M.M.M.",
"M.M.M.M.M.M.M.M.M.n.M.M.M.M.M.v.M.b.M.M.@.@   5 5 e G / T C H x x x l , * ` n.b.M.M.M.M.M.M.c.M.M.M.M.M.M.M.M.M.M.M.M.M.M.M.M.M.",
"M.M.M.M.M.M.M.M.M.M.M.z.M.n.M.v.M.f.O.f ; x C z g ` [ R C e 7 9 z 7 > 7 e R M.M.M.M.M.M.M.n.n.M.M.M.M.M.M.M.M.M.M.M.M.M.M.M.M.M.",
"M.M.M.M.M.M.M.M.z.M.n.c.M.z.M.g.&.C # p T H C R [ G x x & @ z e 7 7 f f 7 H j.m.M.b.z.M.M.M.M.M.M.M.M.M.M.M.M.M.M.M.M.M.M.M.M.M.",
"M.M.M.M.M.M.M.M.n.M.n.M.M.z.h.>.C 9 z H E B x / z s * e S p 7 p d n z 8 , } M.M.M.M.M.n.z.M.M.M.M.M.M.M.M.M.M.M.M.M.M.M.M.M.M.M.",
"M.M.M.M.M.M.M.M.M.n.M.M.M.M.$.K 9 e H x x x p e C G x s p d x z z z , 3 e <.M.M.g.M.M.M.n.M.M.M.M.M.M.M.M.M.M.M.M.M.M.M.M.M.M.M.",
"M.M.M.M.M.M.M.M.M.g.M.M.n.M.K & * & x e z z p 7 d G p 7 s e e x l t & e * ( ` } >.a.M.M.M.M.M.n.M.M.M.M.M.M.M.M.M.M.M.M.M.M.M.M.",
"M.M.M.M.M.M.M.M.M.n.M.M.M.g. .  . : & 9 j N y - l S l A x , @ * > w 7 z x z n w h 2.M.M.m.M.z.M.M.M.M.M.M.M.M.M.M.M.M.M.M.M.M.M.",
"M.M.M.M.M.M.M.M.n.M.M.M.M.M.-.- q : h 0 0 1 U N l A z x z e 7 @ @ , l z z l n n i 2.c.M.M.M.M.M.M.M.M.M.M.M.M.M.M.M.M.M.M.M.M.M.",
"M.M.M.M.M.M.M.M.M.M.M.z.M.M.s.X.: 0 q h = q Z q.z 7 x z 7 z l * @ * l l r l n F b y.l.M.M.n.M.M.M.M.M.M.M.M.M.M.M.M.M.M.M.M.M.M.",
"M.M.M.M.M.M.M.M.M.M.M.M.z.M.M.M.W 5 q + 1 .   <.<.z x x z z e 7 * $ l w r n c m Y l.c.M.M.c.M.v.M.M.M.M.M.M.M.M.M.M.M.M.M.M.M.M.",
"M.M.M.M.M.M.M.M.M.n.M.M.M.z.M.M.c.L 5 & 1 O   p M.R w x z l w 7 @ * l t r m c l ] m.m.m.M.n.M.x.M.M.M.M.M.M.M.M.M.M.M.M.M.M.M.M.",
"M.M.M.M.M.M.M.M.z.M.M.n.M.M.M.z.M.7.h a 9 9 *   i.@.> w l l z l o > l l u l c l ] m.M.M.M.M.M.v.M.M.M.M.M.M.M.M.M.M.M.M.M.M.M.M.",
"M.M.M.M.M.M.M.M.M.M.n.z.M.M.M.M.z.M.:.k B - ,   @.i.e 7 t l n l > , 8 l l r c c U a.M.M.M.M.n.M.M.M.M.M.M.M.M.M.M.M.M.M.M.M.M.M.",
"M.M.M.M.M.M.M.M.M.M.M.M.M.z.z.M.M.M.M.$.d S 3   d q., > , , l n l , $ l n t c l f 2.M.M.n.M.x.M.M.M.M.M.M.M.M.M.M.M.M.M.M.M.M.M.",
"M.M.M.M.M.M.M.M.M.M.M.M.M.M.M.M.M.p.M.M.O.q V e   ] (   8 o > n z 7 , 7 m P c l l :.f.m.n.z.M.M.M.M.M.M.M.M.M.M.M.M.M.M.M.M.M.M.",
"M.M.M.M.M.M.M.M.M.M.M.M.M.M.M.M.M.M.z.z.c.+.8 M v t B t $ X l r l 7 e 7 r n l l c ^ M.l.M.M.n.M.M.M.M.M.M.M.M.M.M.M.M.M.M.M.M.M.",
"M.M.M.M.M.M.M.M.M.M.M.M.M.M.M.M.z.M.v.z.M.n.W p F 8 > w % o i m P z A l r A m m m U M.m.M.z.z.M.M.M.M.M.M.M.M.M.M.M.M.M.M.M.M.M.",
"M.M.M.M.M.M.M.M.M.M.M.M.M.M.M.M.v.z.M.M.g.M.q.V v U < o $ % r ^ ` e l w l P m n m U u.M.x.z.M.M.M.M.M.M.M.M.M.M.M.M.M.M.M.M.M.M.",
"M.M.M.M.M.M.M.M.M.M.M.M.M.M.M.M.M.n.z.M.M.v.z.| l I t =   3 m ^ ! , 7 l l H z l m Z 2.c.v.M.M.k.M.M.M.M.M.M.M.M.M.M.M.M.M.M.M.M.",
"M.M.M.M.M.M.M.M.M.M.M.M.M.M.M.M.M.M.k.M.M.n.M.o.V A 7 3 % l A F I w w z A x z l Z m f.M.M.M.M.n.M.M.M.M.M.M.M.M.M.M.M.M.M.M.M.M.",
"M.M.M.M.M.M.M.M.M.M.M.M.M.M.M.M.x.M.n.v.z.M.M.U F l % < w l l l z z w z l l l l Z Z y.M.M.M.z.M.M.M.M.M.M.M.M.M.M.M.M.M.M.M.M.M.",
"M.M.M.M.M.M.M.M.M.M.M.M.M.M.M.M.m.M.b.M.M.M.5.J I r o > < r V t l S l l z l z l c m Y l.z.M.M.M.M.M.M.M.M.M.M.M.M.M.M.M.M.M.M.M.",
"M.M.M.M.M.M.M.M.M.M.M.M.M.M.n.M.M.M.M.b.m.r.H ! P l 7 w l l z S I H D A z B C t v l D *.m.M.l.M.M.M.M.M.M.n.M.M.M.M.M.M.M.M.M.M.",
"M.M.M.M.M.M.M.M.n.M.M.n.M.M.M.c.m.m.m.M.M.:.t t B D H V t 8 d B A B V v d V D l v H V H %.f.M.M.M.M.c.n.n.M.M.M.M.M.M.M.M.M.M.M.",
"M.M.M.M.M.M.M.M.M.M.M.M.M.M.M.M.M.m.M.M.m...l B l z S x f l z v B S G M l S G g t K D f ^ 4.f.l.j.M.M.M.M.M.M.z.M.M.M.M.M.M.M.M.",
"M.M.M.M.M.M.M.M.M.z.M.M.M.z.M.M.m.m.l.a.,.n t t e w 3 w d n n f B H H V B G N t 1 g g p n J K U W -.n.M.n.M.M.M.M.M.M.M.M.M.M.M.",
"M.M.M.M.M.M.M.M.M.z.M.M.M.n.M.1.:.%...] ' A J Z A z l l c l v A g C B g N D N e v g v N N a p M 6 [ n.M.M.n.M.M.M.M.M.M.M.M.M.M.",
"M.M.M.M.M.M.M.M.M.M.M.z.M.M.M.U : 0 4 r c i D m A z c A A l c D l B l t v N v g e 8 e g M N C H N O.M.M.M.M.M.n.M.M.M.M.M.M.M.M.",
"M.M.M.M.M.M.M.M.M.M.M.z.M.M.M.C 0 c i y 0 2 2 2 u 3 < r u i r r g N M g N M s g s a g N N C C k s _ v.h.M.M.M.M.M.M.M.M.M.M.M.M.",
"M.M.M.M.M.M.M.M.M.z.M.M.M.z.M.Q r i 4 r i b 0 i l l l t w r 4 4 5 g M C S k a M a a k C N N N j p _ M.M.M.n.n.M.M.M.M.M.M.M.M.M.",
"M.M.M.M.M.M.M.M.z.M.z.M.z.M.M.U f f y 0 0 a h f h h i h f f a y q g N N N k k N s j j s q k G W &.w.M.M.M.M.M.z.M.M.M.M.M.M.M.M.",
"M.M.M.M.M.M.M.M.n.M.z.M.M.M.M.&.V b f t t h f r h f f f f h f f 9 g C G C k s s 6 k T { &.7.g.M.g.M.M.n.z.M.M.M.M.M.M.M.M.M.M.M.",
"M.M.M.M.M.M.M.M.M.M.z.M.M.M.M.d.l.a.4.=.+.] ~ L N M j h a q 9 6 k k k s k G _ +.9.u.g.v.v.v.M.M.M.M.M.M.M.M.M.M.M.M.M.M.M.M.M.M.",
"M.M.M.M.M.M.M.M.M.M.M.M.M.M.n.M.M.m.M.M.M.M.M.M.z.g.u.3.:.$. .[ G Q +.1.e.g.v.M.v.M.M.M.M.M.M.M.n.z.M.M.M.M.M.M.M.M.M.M.M.M.M.M.",
"M.M.M.M.M.M.M.M.M.M.M.c.M.M.z.M.M.x.M.M.M.M.M.M.v.c.M.v.M.M.M.M.M.M.M.M.v.M.M.M.M.v.v.v.v.v.v.z.M.M.M.M.M.n.M.M.M.M.M.M.M.M.M.M.",
"M.M.M.M.M.M.M.M.n.M.M.v.M.M.n.M.v.M.M.M.M.z.z.M.M.M.M.M.v.M.n.n.M.v.v.v.M.M.v.z.M.v.M.M.M.M.M.M.M.M.M.M.M.n.M.M.M.M.M.M.M.M.M.M.",
"M.M.M.M.M.M.M.M.M.M.M.M.M.M.M.M.M.M.M.M.M.M.M.M.M.M.v.M.M.M.M.M.v.v.v.M.M.v.v.v.v.M.M.M.v.v.v.v.z.M.M.M.M.M.M.n.M.M.M.M.M.M.M.M.",
"M.M.M.M.M.M.M.M.M.M.n.M.M.n.M.M.M.M.n.M.M.n.z.x.M.M.n.n.M.M.v.v.M.M.v.v.v.v.v.M.M.v.v.v.v.v.M.M.M.M.M.n.M.M.M.M.M.M.M.M.M.M.M.M."
};
