/* XPM */
static char *_cd8471a4d864eaabff10e77d2643000[] = {
/* columns rows colors chars-per-pixel */
"64 64 130 2 ",
"   c #030405",
".  c #060609",
"X  c #07080A",
"o  c #0A0B0D",
"O  c #0E0E11",
"+  c #0F1012",
"@  c #121315",
"#  c #151618",
"$  c #17181A",
"%  c #1A1B1D",
"&  c #1D1E21",
"*  c #1F2023",
"=  c #232425",
"-  c #262827",
";  c #292827",
":  c #262728",
">  c #272829",
",  c #2B2C2C",
"<  c #312F2C",
"1  c #2D302F",
"2  c #32312F",
"3  c #3A352F",
"4  c #2D2E30",
"5  c #2F3031",
"6  c #343434",
"7  c #383735",
"8  c #363837",
"9  c #3A3937",
"0  c #333638",
"q  c #3C3C3A",
"w  c #403D37",
"e  c #413F3B",
"r  c #3F403C",
"t  c #43423E",
"y  c #49463F",
"u  c #3D3F41",
"i  c #3F4141",
"p  c #454442",
"a  c #494641",
"s  c #4B4945",
"d  c #4D4D4A",
"f  c #524D45",
"g  c #514F4A",
"h  c #565047",
"j  c #54524D",
"k  c #5A554D",
"l  c #555552",
"z  c #595751",
"x  c #5D5A54",
"c  c #5D5D59",
"v  c #635D55",
"b  c #615F59",
"n  c #656057",
"m  c #64615B",
"M  c #69645C",
"N  c #716A5D",
"B  c #666562",
"V  c #6A6661",
"C  c #6D6A64",
"Z  c #6E6D69",
"A  c #726D65",
"S  c #726F69",
"D  c #767065",
"F  c #797266",
"G  c #74716C",
"H  c #7A756D",
"J  c #7B786F",
"K  c #767571",
"L  c #797670",
"P  c #7C7A73",
"I  c #7C7D79",
"U  c #887F6E",
"Y  c #827C73",
"T  c #827E78",
"R  c #858075",
"E  c #83827C",
"W  c #89857D",
"Q  c #8C887F",
"!  c #858681",
"~  c #898781",
"^  c #8D8A84",
"/  c #8E8E8A",
"(  c #918D84",
")  c #928F88",
"_  c #8F928C",
"`  c #979186",
"'  c #94928C",
"]  c #99958E",
"[  c #999792",
"{  c #9C9A94",
"}  c #9B9B9A",
"|  c #A19C95",
" . c #A09F99",
".. c #9FA09A",
"X. c #A1A097",
"o. c #A4A29B",
"O. c #A5A6A2",
"+. c #A9A7A2",
"@. c #A6A8A4",
"#. c #AAABA5",
"$. c #ADAEA9",
"%. c #B1AEA7",
"&. c #B1AFAB",
"*. c #B3B2AD",
"=. c #BAB7AF",
"-. c #B6B5B2",
";. c #B9B7B1",
":. c #BABAB6",
">. c #BEBDBA",
",. c #C0BFBB",
"<. c #BFC0BD",
"1. c #C5C3BF",
"2. c #C5C5C2",
"3. c #C9C7C2",
"4. c #CAC9C6",
"5. c #CDCDCB",
"6. c #D1D0CD",
"7. c #D4D4D2",
"8. c #D6D8D6",
"9. c #D9DAD6",
"0. c #DADBDA",
"q. c #E0E0DE",
"w. c #E3E3E2",
"e. c #E7E8E7",
"r. c #E8E8E7",
"t. c #ECECEB",
"y. c #F5F5F4",
"u. c #F8F8F7",
"i. c #F7F8F8",
"p. c #FFFFFF",
/* pixels */
"p.p.p.p.p.p.p.p.p.p.p.p.p.p.p.p.p.p.p.p.p.p.p.p.p.p.p.p.p.p.p.p.p.p.p.p.p.p.p.p.p.p.p.p.p.p.p.p.p.p.p.p.p.p.p.p.p.p.p.p.p.p.p.p.",
"p.p.p.p.p.p.p.p.p.p.p.p.p.p.p.p.p.p.p.p.p.p.p.p.p.p.p.p.p.p.p.p.p.p.p.p.p.p.p.p.p.p.p.p.p.p.p.p.p.p.p.p.p.p.p.p.p.p.p.p.p.p.p.p.",
"p.p.p.p.p.p.p.p.p.p.p.p.p.p.p.p.p.p.p.p.p.p.p.p.p.p.p.p.p.p.p.p.p.p.p.p.p.p.p.p.p.p.p.p.p.p.p.p.p.p.p.p.p.p.p.p.p.p.p.p.p.p.p.p.",
"p.p.p.p.p.p.p.p.p.p.p.p.p.p.p.p.p.p.p.p.p.p.p.p.p.p.p.p.p.p.p.p.p.p.p.p.p.y.y.i.p.p.p.p.p.p.p.p.p.p.p.p.p.p.p.p.p.p.p.p.p.p.p.p.",
"p.p.p.p.p.p.p.p.p.p.p.p.p.p.p.p.p.p.p.p.p.p.p.p.p.p.p.p.p.p.p.p.p.p.p.4.P m m L *.i.p.p.p.p.p.p.p.p.p.p.p.p.p.p.p.p.p.p.p.p.p.p.",
"p.p.p.p.p.p.p.p.p.p.p.p.p.p.p.p.p.p.p.p.p.p.p.p.p.p.p.p.p.p.p.p.p.p.0.M s a a a j o.p.p.p.p.p.p.p.p.p.p.p.p.p.p.p.p.p.p.p.p.p.p.",
"p.p.p.p.p.p.p.p.p.p.p.p.p.p.p.p.p.p.p.p.p.p.p.p.p.p.p.p.p.p.p.p.p.p.|  .G 2 q a s M 6.p.p.p.p.p.p.p.p.p.p.p.p.p.p.p.p.p.p.p.p.p.",
"p.p.p.p.p.p.p.p.p.p.p.p.p.p.p.p.p.p.p.p.p.p.p.p.p.p.p.p.p.p.p.i.p.w.( o.P j 1 , 8 z =.p.p.p.p.p.p.p.p.p.p.p.p.p.p.p.p.p.p.p.p.p.",
"p.p.p.p.p.p.p.p.p.p.p.p.p.p.p.p.p.p.p.p.p.p.p.p.p.p.p.p.p.p.p.p.p.' x ~  .T < > * c  .p.p.p.p.p.p.p.p.p.p.p.p.p.p.p.p.p.p.p.p.p.",
"p.p.p.p.p.p.p.p.p.p.p.p.p.p.p.p.p.p.p.p.p.p.p.p.p.p.p.p.p.p.p.5.G l , j S l 7 9 2 M | u.p.p.p.p.p.p.p.p.p.p.p.p.p.p.p.p.p.p.p.p.",
"p.p.p.p.p.p.p.p.p.p.p.p.p.p.p.p.p.p.p.p.p.p.p.p.p.p.p.i.r.6.T d ~ L $ S b g 9 5 M L [ u.p.p.p.p.p.p.p.p.p.p.p.p.p.p.p.p.p.p.p.p.",
"p.p.p.p.p.p.p.p.p.p.p.p.p.p.p.p.p.p.p.p.p.p.p.p.p.p.2.T P b = 9 @.B l E V 9 e w v [ u.p.p.p.p.p.p.p.p.p.p.p.p.p.p.p.p.p.p.p.p.p.",
"p.p.p.p.p.p.p.p.p.p.p.p.p.p.p.p.p.p.p.p.p.p.p.p.p.5.m V b 0 @ $ i 4 Z C f 9 p & f q.p.p.p.p.p.p.p.p.p.p.p.p.p.p.p.p.p.p.p.p.p.p.",
"p.p.p.p.p.p.p.p.p.p.p.p.p.p.p.p.p.p.p.p.p.p.p.p.r.K S z 6 % @ @ + * 6 s e q > = v [ p.p.p.p.p.p.p.p.p.p.p.p.p.p.p.p.p.p.p.p.p.p.",
"p.p.p.p.p.p.p.p.p.p.p.p.p.p.p.p.p.p.p.p.p.p.p.t.^ b V p 9 9 $ o X @ @ & y u , s k V t.p.p.p.p.p.p.p.p.p.p.p.p.p.p.p.p.p.p.p.p.p.",
"p.p.p.p.p.p.p.p.p.p.p.p.p.p.p.p.p.p.p.p.p.p.p.#.T H a 8 9 d % * 6 5 5 p b S p z b ' w.p.p.p.p.p.p.p.p.p.p.p.p.p.p.p.p.p.p.p.p.p.",
"p.p.p.p.p.p.p.p.p.p.p.p.p.p.p.p.p.p.p.p.p.p.q.' ) ] 9 , 7 4 * : q q 9 9 > z z - n o.e.p.p.p.p.p.p.p.p.p.p.p.p.p.p.p.p.p.p.p.p.p.",
"p.p.p.p.p.p.p.p.p.p.p.p.p.p.p.p.p.p.p.p.p.p.8.^ ( J e , > > * * 6 6 a d , v v - 6 x w.p.p.p.p.p.p.p.p.p.p.p.p.p.p.p.p.p.p.p.p.p.",
"p.p.p.p.p.p.p.p.p.p.p.p.p.p.p.p.p.p.p.p.p.p.2.T ~ M z 6 6 : % 9 u - q , k j q t > ; $.p.i.p.p.p.p.p.p.p.p.p.p.p.p.p.p.p.p.p.p.p.",
"p.p.p.p.p.p.p.p.p.p.p.p.p.p.p.p.p.p.p.p.p.i.{ H ~ V N s 9 9 > a q , K q d e @ s j a { p.p.p.p.p.p.p.p.p.p.p.p.p.p.p.p.p.p.p.p.p.",
"p.p.p.p.p.p.p.p.p.p.p.p.p.p.p.p.p.p.p.p.p.8.^ I Z L b x t 8 9 q 8 , z p d O   g c h o.p.p.p.p.p.p.p.p.p.p.p.p.p.p.p.p.p.p.p.p.p.",
"p.p.p.p.p.p.p.p.p.p.p.p.p.p.p.p.p.p.p.p.p.1.Q N 6 a C z 0 > 6 4 & > s * u I   c h j 1.p.i.p.p.p.p.p.p.p.p.p.p.p.p.p.p.p.p.p.p.p.",
"p.p.p.p.p.p.p.p.p.p.p.p.p.p.p.p.p.p.p.p.p.1.( y 7 : t z s 7 > 4 > # 8 p @.e.p c t n 6.p.p.p.p.p.p.p.p.p.p.p.p.p.p.p.p.p.p.p.p.p.",
"p.p.p.p.p.p.p.p.p.p.p.p.p.p.p.p.p.p.p.p.p.9.R z z e 7 g s y 4 u , & @ G p.5.E a a H ;.p.p.p.p.p.p.p.p.p.p.p.p.p.p.p.p.p.p.p.p.p.",
"p.p.p.p.p.p.p.p.p.p.p.p.p.p.p.p.p.p.p.u.p.5.U F j z y ; = f g B * * @ 9 } K c 9 C C ^ p.p.p.p.p.p.p.p.p.p.p.p.p.p.p.p.p.p.p.p.p.",
"p.p.p.p.p.p.p.p.p.p.p.p.p.p.p.p.p.p.p.p.p.O.Y A x s 8 , * > k e 6 * $ O s ' 0 p H j K i.p.p.p.p.p.p.p.p.p.p.p.p.p.p.p.p.p.p.p.p.",
"p.p.p.p.p.p.p.p.p.p.p.p.p.p.p.p.p.p.p.p.w.^ ~ W v k q = % & - - 5 s @ , p t 6 q l 6 c 3.p.i.p.p.p.p.p.p.p.p.p.p.p.p.p.p.p.p.p.p.",
"p.p.p.p.p.p.p.p.p.p.p.p.p.p.p.p.p.p.p.p.*.' ! b 2 6 % @ @ # O = * q 5 d > 4 : , * 6 B @.p.p.p.p.p.p.p.p.p.p.p.p.p.p.p.p.p.p.p.p.",
"p.p.p.p.p.p.p.p.p.p.p.p.p.p.p.p.p.p.p.r.V P j p = @ @ @ @ X O = B p : q = % @ @ + 5 T { y.p.p.p.p.p.p.p.p.p.p.p.p.p.p.p.p.p.p.p.",
"p.p.p.p.p.p.p.p.p.p.p.p.p.p.p.p.p.p.p.6.z l 0 4 - @ @ @ @ @ 4 7 / } & & @ O . . = p ' #.y.p.p.p.p.p.p.p.p.p.p.p.p.p.p.p.p.p.p.p.",
"p.p.p.p.p.p.p.p.p.p.p.p.p.p.p.p.p.p.p.o.D A p 4 ; @ + @ @ @ # > : : : = = O . @ , a Y >.p.p.p.p.p.p.p.p.p.p.p.p.p.p.p.p.p.p.p.p.",
"p.p.p.p.p.p.p.p.p.p.p.p.p.p.p.p.p.p.q.E ^ ) ^ S a 9 1 $ @ X = 8 q p j p 6 = > , 6 k ` 4.p.p.p.p.p.p.p.p.p.p.p.p.p.p.p.p.p.p.p.p.",
"p.p.p.p.p.p.p.p.p.p.p.p.p.p.p.p.p.p.4.' o.O.^ Y V j r q = # : 0 x B l u g p d s e V =.r.p.p.p.p.p.p.p.p.p.p.p.p.p.p.p.p.p.p.p.p.",
"p.p.p.p.p.p.p.p.p.p.p.p.p.p.p.p.p.p.>.o.@.' L H P V 6 d t t @ # 4 : = 4 d g f x z X.*.p.p.p.p.p.p.p.p.p.p.p.p.p.p.p.p.p.p.p.p.p.",
"p.p.p.p.p.p.p.p.p.p.p.p.p.p.p.p.p.p.*.O.#.[ W W W Y a p e s ,   X O O @ , 9 a e S @.5.u.p.p.p.p.p.p.p.p.p.p.p.p.p.p.p.p.p.p.p.p.",
"p.p.p.p.p.p.p.p.p.p.p.p.p.p.p.p.p.p.$.o.#.) ~ ) { X.f > c C 6   O O O % , u s ; h H =.p.p.p.p.p.p.p.p.p.p.p.p.p.p.p.p.p.p.p.p.p.",
"p.p.p.p.p.p.p.p.p.p.p.p.p.p.p.p.p.p.5.` $.[ ^ ' ` ( a ; S S & X + + # @ & h e 2 t t =.p.p.p.p.p.p.p.p.p.p.p.p.p.p.p.p.p.p.p.p.p.",
"p.p.p.p.p.p.p.p.p.p.p.p.p.p.p.p.p.p.p.:.o. .I ' Q D e s v B O   o + # * $ h 3 v q V y.p.p.p.p.p.p.p.p.p.p.p.p.p.p.p.p.p.p.p.p.p.",
"p.p.p.p.p.p.p.p.p.p.p.p.p.p.p.p.p.p.p.i.) ~ ~ W Y A y s B j . O o O & * : w f f g +.p.i.p.p.p.p.p.p.p.p.p.p.p.p.p.p.p.p.p.p.p.p.",
"p.p.p.p.p.p.p.p.p.p.p.p.p.p.p.p.p.p.p.i.' A S ~ H F e a L 6 o $ + + @ & 6 e 0 0 l 6.p.p.p.p.p.p.p.p.p.p.p.p.p.p.p.p.p.p.p.p.p.p.",
"p.p.p.p.p.p.p.p.p.p.p.p.p.p.p.p.p.p.p.w.] m B ' D v f g V & O @ # O & 6 9 6 6 q I p.p.p.p.p.p.p.p.p.p.p.p.p.p.p.p.p.p.p.p.p.p.p.",
"p.p.p.p.p.p.p.p.p.p.p.p.p.p.p.p.p.p.p.0.' m H ^ D g a z C , O > = X # 4 6 6 6 d 7.p.p.p.p.p.p.p.p.p.p.p.p.p.p.p.p.p.p.p.p.p.p.p.",
"p.p.p.p.p.p.p.p.p.p.p.p.p.p.p.p.p.p.p.q.{ M V W A f s M v 6 = 6 = X % < 6 , 2 +.p.p.p.p.p.p.p.p.p.p.p.p.p.p.p.p.p.p.p.p.p.p.p.p.",
"p.p.p.p.p.p.p.p.p.p.p.p.p.p.p.p.p.p.p.w.Q j x I S f j V a 6 4 6 : X % : , = E p.p.p.p.p.p.p.p.p.p.p.p.p.p.p.p.p.p.p.p.p.p.p.p.p.",
"p.p.p.p.p.p.p.p.p.p.p.p.p.p.p.p.p.p.p.7.Y j j W J f f b t 2 4 4 $   # ; ; x y.p.p.p.p.p.p.p.p.p.p.p.p.p.p.p.p.p.p.p.p.p.p.p.p.p.",
"p.p.p.p.p.p.p.p.p.p.p.p.p.p.p.p.p.p.p.:.C t d W Y f t s 2 q 7 - o X % , q $.p.p.p.p.p.p.p.p.p.p.p.p.p.p.p.p.p.p.p.p.p.p.p.p.p.p.",
"p.p.p.p.p.p.p.p.p.p.p.p.p.p.p.p.p.i.p.-.m p i G Y e 9 9 , 6 ; @   . : 7 L =.p.p.p.p.p.p.p.p.p.p.p.p.p.p.p.p.p.p.p.p.p.p.p.p.p.p.",
"p.p.p.p.p.p.p.p.p.p.p.p.p.p.p.p.p.p.p.;.j p q x S 9 8 6 : = @ X . # , k S %.p.p.p.p.p.p.p.p.p.p.p.p.p.p.p.p.p.p.p.p.p.p.p.p.p.p.",
"p.p.p.p.p.p.p.p.p.p.p.p.p.p.p.p.p.p.p.} d a r s C t r 1 % #   o X * r m 4 K p.p.p.p.p.p.p.p.p.p.p.p.p.p.p.p.p.p.p.p.p.p.p.p.p.p.",
"p.p.p.p.p.p.p.p.p.p.p.p.p.p.p.p.p.p.8.^ l p r 0 m t p 6 @ X   X + p l ! 4 C p.p.p.p.p.p.p.p.p.p.p.p.p.p.p.p.p.p.p.p.p.p.p.p.p.p.",
"p.p.p.p.p.p.p.p.p.p.p.p.p.p.p.p.p.p.-.P l i q 8 D d q a $ X     0 u d o.= I 8.p.p.p.p.p.p.p.p.p.p.p.p.p.p.p.p.p.p.p.p.p.p.p.p.p.",
"p.p.p.p.p.p.p.p.p.p.p.p.p.p.p.p.i.p.$.^ l 5 5 0 n d a d @ X     > 4 s ' > I *.i.p.p.p.p.p.p.p.p.p.p.p.p.p.p.p.p.p.p.p.p.p.p.p.p.",
"p.p.p.p.p.p.p.p.p.p.p.p.p.p.p.p.p.p.*.T 5 = 5 q A J q c * o X . o $ l } q R [ >.p.p.p.p.p.p.p.p.p.p.p.p.p.p.p.p.p.p.p.p.p.p.p.p.",
"p.p.p.p.p.p.p.p.p.p.p.p.p.p.p.p.p.p.1.H r 8 8 a F Y < j d X O . + 4 d B b P ^ ^ t.p.p.p.p.p.p.p.p.p.p.p.p.p.p.p.p.p.p.p.p.p.p.p.",
"p.p.p.p.p.p.p.p.p.p.p.p.p.p.p.p.p.i.o.Q x i i 0 E P t 9 b O O X $ * = z H H E ! 5.p.p.p.p.p.p.p.p.p.p.p.p.p.p.p.p.p.p.p.p.p.p.p.",
"p.p.p.p.p.p.p.p.p.p.p.p.p.p.p.p.p.2.P ! L d , > M E r = m i . . @ 9 q c L ] ' ' 2.p.i.p.p.p.p.p.p.p.p.p.p.p.p.p.p.p.p.p.p.p.p.p.",
"p.p.p.p.p.p.p.p.p.p.p.p.p.p.p.p.p.:.T L Y A 7 = 9 c 4 = s p & X + 0 s L #.o.~ G { p.p.p.p.p.p.p.p.p.p.p.p.p.p.p.p.p.p.p.p.p.p.p.",
"p.p.p.p.p.p.p.p.p.p.p.p.p.p.p.p.p.&.L S A n j 2 > k g 8 q q d : - t M ^ / @.^ ) ' 2.p.p.p.p.p.p.p.p.p.p.p.p.p.p.p.p.p.p.p.p.p.p.",
"p.p.p.p.p.p.p.p.p.p.p.p.p.p.p.i.p.$.A L H C c a : 4 s t t s x s j V V L ^ @.] ` { 7.p.p.p.p.p.p.p.p.p.p.p.p.p.p.p.p.p.p.p.p.p.p.",
"p.p.p.p.p.p.p.p.p.p.p.p.p.p.p.p.p.y. .P M H B t 7 , 6 6 e e 9 j C b c V K ^ G ..r.p.p.p.p.p.p.p.p.p.p.p.p.p.p.p.p.p.p.p.p.p.p.p.",
"p.p.p.p.p.p.p.p.p.p.p.p.p.p.p.p.p.p.p.t.-.[ V e d q 6 , , , 9 j S Z E / O.2.0.p.p.p.p.p.p.p.p.p.p.p.p.p.p.p.p.p.p.p.p.p.p.p.p.p.",
"p.p.p.p.p.p.p.p.p.p.p.p.p.p.p.p.p.p.i.p.p.p.t.q.q.q.0.8.0.8.0.w.t.p.p.p.p.p.p.p.p.p.p.p.p.p.p.p.p.p.p.p.p.p.p.p.p.p.p.p.p.p.p.p.",
"p.p.p.p.p.p.p.p.p.p.p.p.p.p.p.p.p.p.p.p.p.p.p.p.p.p.p.p.p.p.p.p.p.p.p.i.p.p.p.p.p.p.p.p.p.p.p.p.p.p.p.p.p.p.p.p.p.p.p.p.p.p.p.p.",
"p.p.p.p.p.p.p.p.p.p.p.p.p.p.p.p.p.p.p.p.p.p.p.p.i.p.p.p.p.i.p.p.p.p.p.p.p.p.p.p.p.p.p.p.p.p.p.p.p.p.p.p.p.p.p.p.p.p.p.p.p.p.p.p."
};
