/* XPM */
static char *edc19c4c221246cacefeffb3204ac3f5[] = {
/* columns rows colors chars-per-pixel */
"75 64 244 2 ",
"   c None",
".  c #242514",
"X  c #2B2C15",
"o  c #2C2D1A",
"O  c #292717",
"+  c #322B1C",
"@  c #2C3215",
"#  c #2C3B15",
"$  c #2D341B",
"%  c #2C3B1B",
"&  c #263515",
"*  c #33331A",
"=  c #343D1B",
"-  c #3A3D1C",
";  c #333717",
":  c #382E23",
">  c #2A3C20",
",  c #2E3623",
"<  c #343624",
"1  c #3A3323",
"2  c #343B23",
"3  c #3C3D24",
"4  c #3B3B2B",
"5  c #37382A",
"6  c #443D2A",
"7  c #443B26",
"8  c #413D31",
"9  c #2F4218",
"0  c #334216",
"q  c #34431B",
"w  c #3A441C",
"e  c #3D4B1C",
"r  c #384917",
"t  c #3E521C",
"y  c #3E5114",
"u  c #2C4124",
"i  c #2F462A",
"p  c #334323",
"a  c #394525",
"s  c #354A25",
"d  c #3D4B23",
"f  c #3B442B",
"g  c #364B2A",
"h  c #3B4C2C",
"j  c #344229",
"k  c #3C5224",
"l  c #3D542C",
"z  c #39562B",
"x  c #3C4831",
"c  c #3E5632",
"v  c #3A5731",
"b  c #2E4632",
"n  c #3D6130",
"m  c #434C1D",
"M  c #474A1C",
"N  c #44531D",
"B  c #4B551E",
"V  c #4B5B1D",
"C  c #45571A",
"Z  c #545E1F",
"A  c #55661E",
"S  c #5C771C",
"D  c #626B1F",
"F  c #444223",
"G  c #434C23",
"H  c #4A4E22",
"J  c #424C2C",
"K  c #46462B",
"L  c #445424",
"P  c #4B5422",
"I  c #445A25",
"U  c #4C5B24",
"Y  c #42542D",
"T  c #4B532B",
"R  c #435B2B",
"E  c #4C5C2A",
"W  c #515423",
"Q  c #535C24",
"!  c #535C2B",
"~  c #595A2B",
"^  c #4B4434",
"/  c #444D32",
"(  c #494937",
")  c #564B36",
"_  c #455333",
"`  c #4C5233",
"'  c #445B33",
"]  c #4D5B33",
"[  c #495A3D",
"{  c #535B33",
"}  c #545839",
"|  c #534A27",
" . c #65573D",
".. c #4C6224",
"X. c #44612D",
"o. c #4D642B",
"O. c #4F682D",
"+. c #546323",
"@. c #5A6525",
"#. c #576B24",
"$. c #5B6C26",
"%. c #53642A",
"&. c #5B642B",
"*. c #556B2C",
"=. c #5B6B2B",
"-. c #5C7524",
";. c #5D752D",
":. c #5A762A",
">. c #446233",
",. c #4C6333",
"<. c #4C6B33",
"1. c #4D6539",
"2. c #4C6B3B",
"3. c #466938",
"4. c #526332",
"5. c #546B34",
"6. c #5B6C34",
"7. c #536C3B",
"8. c #5B6C3B",
"9. c #58643A",
"0. c #4B753D",
"q. c #547233",
"w. c #5C7333",
"e. c #5D7C35",
"r. c #5C733B",
"t. c #5D7C3A",
"y. c #55773B",
"u. c #626D2C",
"i. c #65672A",
"p. c #647324",
"a. c #657A25",
"s. c #63742B",
"d. c #6A742D",
"f. c #647B2B",
"g. c #6C7B2A",
"h. c #6C7525",
"j. c #737D2B",
"k. c #75792B",
"l. c #626B3A",
"z. c #646A33",
"x. c #647433",
"c. c #647A33",
"v. c #6C7C34",
"b. c #637C3C",
"n. c #687438",
"m. c #757D39",
"M. c #757D34",
"N. c #565B43",
"B. c #695C43",
"V. c #5B6445",
"C. c #587542",
"Z. c #4B7440",
"A. c #676947",
"S. c #76674A",
"D. c #667B43",
"F. c #747C46",
"G. c #736D52",
"H. c #867352",
"J. c #8A704F",
"K. c #5C823A",
"L. c #66842C",
"P. c #6B842C",
"I. c #6C8B2E",
"U. c #6C8624",
"Y. c #74832C",
"T. c #748B2C",
"R. c #788A29",
"E. c #759224",
"W. c #7B932B",
"Q. c #799929",
"!. c #6B8433",
"~. c #6D8B34",
"^. c #64843D",
"/. c #6B843C",
"(. c #6C8D3C",
"). c #648737",
"_. c #738433",
"`. c #738B34",
"'. c #738D3A",
"]. c #7B8B39",
"[. c #788637",
"{. c #6E943C",
"}. c #749335",
"|. c #7B9534",
" X c #7C9B34",
".X c #73923B",
"XX c #7B923B",
"oX c #7B9B3C",
"OX c #749A39",
"+X c #6C9024",
"@X c #7CA13D",
"#X c #7FA021",
"$X c #598545",
"%X c #638344",
"&X c #6C8D42",
"*X c #698844",
"=X c #758542",
"-X c #758C43",
";X c #798A46",
":X c #689346",
">X c #7C9C4C",
",X c #779745",
"<X c #74965A",
"1X c #7CA248",
"2X c #78A656",
"3X c #838C2C",
"4X c #868A2D",
"5X c #82932C",
"6X c #849C2B",
"7X c #889E29",
"8X c #848936",
"9X c #859B33",
"0X c #889638",
"qX c #939836",
"wX c #88A42A",
"eX c #8AA438",
"rX c #95A638",
"tX c #94A92F",
"yX c #ABB33C",
"uX c #A6B738",
"iX c #ABB43F",
"pX c #B2C02F",
"aX c #839A42",
"sX c #889849",
"dX c #869D56",
"fX c #8E904D",
"gX c #85A746",
"hX c #94A447",
"jX c #87A956",
"kX c #8AB357",
"lX c #93B952",
"zX c #95B64B",
"xX c #A6B14A",
"cX c #AF9063",
"vX c #B79960",
"bX c #8BAC62",
"nX c #DBB472",
"mX c #D0AE6B",
"MX c #E6BF73",
"NX c #99C159",
"BX c #9DC761",
"VX c #AFC965",
"CX c #DFC377",
"ZX c #EBC378",
/* pixels */
"                                                                                                                                                      ",
"                                                                                                                                                      ",
"                                            $X:X:X2X                                                                                                  ",
"                                          :XK.0.Z.$X2X          BXkX<X                                                                                ",
"                                        *X'.oX^.Z.Z.:XjXlXBXNXBXlXkXjXjX  2XkX                        OX~.).                                          ",
"                                        *Xt./.OXK.0.:X2XkXkXlXlX1X1XjXkX1X:X:X2X        bXbX1X:X    1X}.~.}.    aX    b.*X                            ",
"                                    (.K.y.' 3.<.t.y.).1XgXOX1XeX:X1XhXgX%X$X$X:X      jX>X:X&X*X1XQ.@X!.}.-X  =XF./.c.4.7.v.                          ",
"                                  *Xt.XXe.>.3.3.q.K.@X@X,XoX@X1X1X,X:X).%X,X,X2X  gXjXjX-X(.t.%XgX}.+X).b.c.b./.-XD.q.Y I *.%.                        ",
"                                    b.b.1.1.<.<.q.:.}.oXoX-X}.OX{.{.e.K.oXgX,X-XgXzXgXgX(.}.(.@XeX X~.:.5.r.].aXaX;X..k I R U ;.c.w.s.a.S -.a.        ",
"                        :X            Z.C.1.,.<.y.*.q.~.).y.^.oX~.OXe.y.q.^./.,XgXsX-X.X'.|.Q.+XI.P.K.w.x.s.g.c.c.%.L 2 s q N V U =.f.p.a.S -.-.      ",
"                    ^.^.(.@X{.    y.>.1.9.1.o.O.o.,.<.e.I.q.b.,X/.'.oX'.t.t.r./.>XD.^.|.}.|.Q.T.f.:.#...-.*.E L L L N w q = r t e e e Q A A ;.s.a.    ",
"                    D.$X^./..X.X-X&X<.>.1.7.l z z v ,.*./.+XI.|.0X,X}.eX`.v.'.,Xb.t.b.[.[.!._.Y.s.!.s.E ..R L G d m C e q w N U Q m 0 e V %.#...%.    ",
"                    &X,X*X1.b.9X9X}.<.R q.q.l I I k R :./.!.!.XX}.). XL.:.e.~.XXx.c.;.w.v.].!.s.s.Y.a...U d L d d P L r e m r e U I 0 0 C V N t       ",
"                      C.1.2.K.'.`.I.I.L.9XT.5...k X.X.:.!.5.%.5.c.:.'.L.:.*.L.I._.f.*.f.s.f.%.%.=.L.s...P d L U U +.+.Q U r 9 # 9 0 # 0 9 y ....4.    ",
"                        7.b.t.x.q.P.L.9XeXW.6XL.R o.w.P.P.=.r.L.~.L.'.eX XQ.Q.Q.wXW.I.U.L.c.E L C U f.#.m G E L %.%.;.*.U 0 & 0 C e 0 9 & r #.P R     ",
"                      w.r.b.6.5.:.9X|.`.g.a.#XQ.E.-.E.wXU.;.L.W.I.eXwXwXwXtXwXQ.6XwX6XU.-.#.Q P -.s.;.&.U P L N V C U 0 & & u t A N # # @ # t t I     ",
"                    C.r.8.r.4.%.}.T.P.s.+.p.U.E.wX#X#XtXE.+XQ.wXE.tXwXE.+X9X5XT.5X5XrX_.=.U w G ;.U.S Q ~ =.W P V N 0 # & & # e U U C t 0 # q s t I   ",
"                  D.^.q.,.1.' ;.9X!.;.#.$.f.s.R.W.W.6X6XU.Q.6XT.rX9X7X5XR.g.s.p.g.j.p.%.%.q = M +.a.Y.@.P i.P N M B y r 0 e % # r U =.      j > p p   ",
"            C.C.%X3.,.>.R o.!.L.f.c.;.%.u.=.c.d.u.j._.0XrXW.qX0XW.W.9X5Xh.A A +.U C L t w = e C u.i.D B u.i.Q B M C C A N C C y r L N         p %     ",
"          C.0.y.b.5.n l Y k O.e.:.#.Q %.Q E %.u.=.$.&.n.f.W.0XW.W.Q.`.f.#.C Q A C k e w ; = w m @.Z Q i.i.~ W Q A V V @.N r y V y r r r               ",
"          %X0.>.n v c l l g Y P.a.@.Q &.U I ..&.%.Q P e P U.R.W.9XY.d.u.#.P m q e %.Q Q w = = w m U k.i.! ! u.&.C U B Z B M m V C r # 0 e             ",
"      jX<X%X<.n z v X.l b g R I.s.+.Q @.@.U k +.6.$.G G +.j.5X5X5Xg.z.i.B Q U q w N B h.+.U N w m - M G ! P ~ L m C M B B G m C C N # # y             ",
"      jX,XK.n z v v b > b u i *.;.$.u.*.c._ q 9 I %.d V u.g.h.h.R.h.$.M.Q A Z e N U #.=.B e = @ - P B W M * G B B Z B B P w w m L N q q k #.          ",
"      &XK.n z z b z i > u s s o.*.*.m.,._ j a h /     L C i.g.R.R.h.R.g.5Xk.p.B p._.W M @ . X . X V Z &.| H - G ! W m L e q w w d d j > k *.          ",
"    $X%Xb.v c _ c R g s d l I 4.4.  ` /   a p u     h a ! j.Y.5XY.3Xk.k.3Xk.3X3XU.s.P ~ C o * X X - i.u.u.G % ! m.&.m   G e e G G G = q d d           ",
"    $X'.r.[ 1.>.c c Y R R l R ]     o.] i s & u     h K =Xv.[.Y.0XtX4X8Xd.8XR.4Xu.#.V M G * $ $ X @ w U q & ; u.0Xn.G !       J a G L N m             ",
"    >X0Xt.r.r.X.>.1.l g l ' 4.Y j & a 4   u & i g v x { 8.8.x.L u.3XqX8Xi.i.k.D M C M B - = ; * * X @ ; @ & % T m.6.L P       d Y J H G U             ",
"  jXdXgXXX(.w.O.,.l l l >.1.E s 2 $ 5 5     g z l x.4.! ! Y p J [.4X4Xk.~ 7 M ; ; ; q M @ X X @ ; - ; < $ $ % % - w d           f                     ",
"  <X;X;X;Xb.O._ ' ,.X.c 1.c s 2 > $   5 g g s k +.9X=.d U E q ! 0Xd.i.i.~ 7 X ; * X X . X X X = 4 4 - 5 < > $ p q = L                                 ",
"  <XC.C.r.8.r.V.] 7.  c _               j a q % N +.P x._.u.m P ~ M H ~ | * X X O . . O X O X $ f   , 2 2 f = d d s                                   ",
"    dX-Xl.8.b.D.8.                      5 ] P d P P x.Y._.d.L U W F ~ P z.7 + O O O O . * + O $ 1 3 < 2 <   g _                                       ",
"  dXhXhXXXb.b.4.'                     g g _ 4.6.L P i.d.=.u.+.c.m.P T H  .7 O O 1 5 $ o + + o o - * 2 j f g 5                                         ",
"  dXsXeXaX8X6.                          9.4.{ 6.E d.x.U L P =.!.v.T 5   1 : O : 4 5 , 5 o 5 $ $ < < 2 a f f f h                                       ",
"VXxXsXc.c.v.'.                        D.r.4.8.6.6.H.[.v.  P u.j.v. .    : 7   ^       8 5 1 5 < 5 3 f f / / x                                         ",
"  xX0X[.].[.                  K       -X  } ` } ( A.D.    z.sXfXF.l.  : 1             ( 8 8   4 f 4 / ` ` _                                           ",
"  xX8XY.0XhX                s K           9.9.[   fXN.N.6.aX    F.n.K :               (         ^ ^                                                   ",
"                            J (           N.` F.xXrXm.` =.x.    G.) 8                                                                                 ",
"                  6.              sXxXsX  =XA.sXfXaX0X{ J T     ) ^                                                                                   ",
"                  5.{ %.L       8.=X=X5.l.].v.F.=Xl._ f x /   ( ^                                                                                     ",
"                  9.{ !   !   { ] V.9.! z.z.[.sX-Xl.f f x } B.( (                                                                                     ",
"                              l.A.V.A.9.} ` l.n.l.{ ' _ } S.B.  N.                                                                                    ",
"                              uX/.A.F.} _ J J / x (     A.A.                                                                                          ",
"                      yXpXuXyXpX5Xl.V.  ( { / K _       G.N.                                                                                          ",
"                    yXyXhXrXR.3X7X5X[./.  } L ] 4.      V.                                                                                            ",
"                    yXuXqX_.Y.R.7XY.@.=.n.c.d._.f.    A.l.                                                                                            ",
"                    xXqXqX_.u.p.M.j.g.g.d.W.4X_.|.  9.N.                                                                                              ",
"                    xXqXhX0X_.z.u.u.Z 4X+.h.x.4.s.  }                                                                                                 ",
"                    rXqX8X[.&.Q p.B w h.h.j.d.Q T T J                                                                                                 ",
"                            T ! W     M @.k.j.w F F                                                                                                   ",
"                            5.l.      | | i.M F 7 q                                                                                                   ",
"                          [.[.        1 | M 1 7 F                                                                                                     ",
"                                      7 ~ M 7 7                                                                                                       ",
"                                      6 ) 7 K ^                                                                                                       ",
"                                    | 8  .7 ^                                                                                                         ",
"                                    |  . .7 )                                                                                                         ",
"                                    B.A.) 6 )                                                                                                         ",
"                                      S.B.) )                                                                                                         ",
"                                    B.G.J.B.                                                                                                          ",
"                                    S.S.S.J.                                                                                                          ",
"                                    S.S.B.J.                                                                                                          ",
"                                    S.H.J.J.                                                                                                          ",
"                                    J.H.H.cX                                                                                                          ",
"                                  fXcXmXvXmX                                                                                                          ",
"                              ZXnXnXMXZXZXnXZXCX                                                                                                      "
};
